
<svg id="Logo_Secreto_de_la_Navidad" data-name="Logo Secreto de la Navidad" xmlns="http://www.w3.org/2000/svg" width="300" height="259" viewBox="0 0 300 259">
  <g id="Grupo_32" data-name="Grupo 32" transform="translate(0.33 43.248)">
    <g id="Grupo_31" data-name="Grupo 31" transform="translate(0)">
      <g id="Grupo_17" data-name="Grupo 17" transform="translate(0 22.088)">
        <g id="Grupo_16" data-name="Grupo 16">
          <path id="Trazado_57" data-name="Trazado 57" d="M456.458,552.739c-12.171-9.835-33.458-16-56-16-37.638,0-66.943,13.451-74,36-6.084-2.442-12.083-4.73-18-7,11.427-12.724,18.871-27.06,22-36,.573-1.639,1.087-5.1,2-9l9-1a35.3,35.3,0,0,1,1,6c0,2.308-2.011,4.011-3,5,0,.989,3.873,4,7,4s4.67-3.011,5-4a5.1,5.1,0,0,0,4,2c1.648,0,3-1.011,3-2-2.19-.168-4.708-9.222-7-18-2.193-8.4-4-16.9-4-19,0-2.308,1.011-3.67,2-4,0-1.121-3.2-4-7-4-1.978,0-4.34,2.022-5,4a4.134,4.134,0,0,0-4-3c-.989,0-3,.681-3,2a4.787,4.787,0,0,1,2,4c0,1.943-4.991,22.689-9,34-1.053,2.971-1.423,5.832-3,9v-33c0-4.945,1.044-14.022,5-16,0-2.111-2.522-5-5-5-1.648,0-4.341,2.022-5,4a6.053,6.053,0,0,0-5-3c-.989,0-3,1.351-3,3,1.649.33,7,6.041,7,13v20c-2.81-4.458-7.287-10.873-11-17-3.035-5.008-5.844-9.609-10-12a19.164,19.164,0,0,0-13-5c-2.876,0-5.5,1.555-8,3,4-3.67,6-8.913,6-15,0-7.966-4.557-12.411-10-16a118.568,118.568,0,0,0-10-7c-2.465-2.1-4-3.783-4-7,0-4.945,3.384-9,8-9a5.658,5.658,0,0,1,1,0c1.988,3.222,1.884,8.116,1,9,0,1.023,1.681,1,3,1a6.5,6.5,0,0,0,2,0c-.107.628-.783.783-1,1,0,1.023,1.681,2,3,2,2.967,0,5-4.1,5-7,0-2.379-.341-4.341-1-5a4.008,4.008,0,0,0,1-5,11.925,11.925,0,0,1-4-3c-3.3,1.648-7.384,2-12,2-7.253,0-17,5.132-17,17,0,6.116,5.359,10.067,11,14,1.837,1.426,4.043,2.636,6,4,3.91,3.04,6,6.635,6,11,0,8.242-3.758,13-12,13a12.012,12.012,0,0,1-5-1,11.436,11.436,0,0,1-3-8c0-4.876,2.273-9.418,5-10,.007.084,0,.914,0,1a4.345,4.345,0,0,1-3,4c-.95,2.534-.041,4.781,3,5a4.326,4.326,0,0,0,4,3,7.064,7.064,0,0,0,7-7c0-3.85-1.6-7.057-5-8a6.884,6.884,0,0,0-6-3c-5.934,0-11,4.747-11,12,0,5.087,3.3,9.609,8,12,2.557,2.579,5.691,5,10,5a23.375,23.375,0,0,0,11-3c-3.235,2.942-6,6.8-6,11a9.19,9.19,0,0,0,6,9,6.694,6.694,0,0,0,6,3c6.264,0,10-5.373,10-9,0-3.027-1.01-4.662-4-5a5.277,5.277,0,0,0-5-3c-3.627,0-6.648,3.363-5,6,.989-.33,3,.352,3,2a4.4,4.4,0,0,1-4,4,7.994,7.994,0,0,1-1-4c0-7.253,5.066-12,11-12,1.4,0,1.847.484,3,1a29.578,29.578,0,0,1,3,3v26c0,5.761-4.033,14.022-7,16,0,.989,2.543,5,6,5,2.308,0,5.67-3.011,6-4,.659.659,1.022,2,3,2,1.649,0,4-1.011,4-2-2.308-1.319-7-8.4-7-14v-21c8.4,13.576,19.4,30,20,31a2.929,2.929,0,0,0,2,1,13.206,13.206,0,0,1,1,2c.465.465,3.606.306,5,0a111.715,111.715,0,0,1-18,25c-22.01-8.2-41.736-14-54-14-16.814,0-31,9.8-31,22,0,7.3,2.727,13.431,9,17,4.719,4.389,13.442,7,25,7,19.83,0,36.047-8.506,49-20,7.962,3.516,16.241,7.258,25,11,.556,11.1,6.248,19.445,15,25,7.914,6.587,19.857,10,34,10,11.074,0,19.809-4.1,27-10a151.093,151.093,0,0,0,27,3c24.4,0,44-19.868,44-38C471.458,566.311,465.5,558.675,456.458,552.739Zm-109,57a32.329,32.329,0,0,1-11-20c18.034,7.38,36.615,14.7,55,19a41.616,41.616,0,0,1-23,7A38.174,38.174,0,0,1,347.458,609.739Zm78-2c-4.557,0-10.44-1.792-18-4,6.149-7.58,9-16.62,9-24s-1.761-16.558-8-19a8.727,8.727,0,0,0-7-3c-3.3,0-6,1.7-6,5,0,3.025,2.794,5.519,5,6a5.3,5.3,0,0,0,7,2c-1.319-.989-1.308-4,1-4,.059,0-.068-.005,0,0,1.167,1.935,2,5.372,2,11,0,5.954-2.741,15.893-10,24-17.545-5.788-40.281-14.767-63-24,6.909-26.488,42.639-35,67-35,20.046,0,38.45,4.448,50,12,6.568,5.329,10,11.591,10,19C464.458,590.553,445.569,607.739,425.458,607.739Zm-197-22a15.794,15.794,0,0,1-5-12c0-9.561,7.845-18,24-18,9.321,0,25.287,6.377,45,15-12.948,10.652-29.133,19-47,19C238.5,589.739,232.8,588.255,228.458,585.739Zm112-71-7,1c1.054-4.742,2.236-9.323,3-13C337.55,506.574,339.377,510.665,340.458,514.739Z" transform="translate(-216.788 -427.076)" fill="#aa8244"/>
        </g>
      </g>
      <g id="Grupo_18" data-name="Grupo 18" transform="translate(167.773 72.397)">
        <path id="Trazado_58" data-name="Trazado 58" d="M676.561,564.633c0-.989-3.363-5-6-5-1.648,0-4.67,2.352-5,4a7.887,7.887,0,0,0-5-2c-.989,0-2.967.379-3,2,2.274.3,3,4.692,3,7v28c0,3.956-1.352,6.011-3,7,0,.989,1.884,4,6,4,1.978,0,4.4-3.334,5-4,1.052,1,2.351,3,4,3s4-1.764,4-3c-.795,0-2.3-1.255-3-3a13.8,13.8,0,0,1-1-4v-27C672.561,568.336,674.583,564.962,676.561,564.633Z" transform="translate(-657.664 -559.278)" fill="#aa8244"/>
      </g>
      <g id="Grupo_20" data-name="Grupo 20" transform="translate(254.183 58.353)">
        <g id="Grupo_19" data-name="Grupo 19">
          <path id="Trazado_59" data-name="Trazado 59" d="M912.22,526.772a13.179,13.179,0,0,0-9-4c-6.923,0-9.681,3.022-11,5-.989-.989-2.022-3-4-3a3.249,3.249,0,0,0-3,3c1.978,0,3,2.7,3,6v23c-1.417,1.769-2,3.96-2,7,0,8.11,9.884,13,14,13,13.517,0,23-12.835,23-28C923.22,538.26,918.6,530.009,912.22,526.772Zm-19,45a7.873,7.873,0,0,1-2-5c0-1.037.791-2.082,1-3,.506,1.63,3.2,5,6,5a7.325,7.325,0,0,0,7-7,6.742,6.742,0,0,0-5-6,5.151,5.151,0,0,0-1-1c.384-.086.579.054,1,0v-20c0-3.956,2.7-7,6-7,.21,0,.8-.027,1,0,2.407,3.784,3,11.158,3,20,0,12.857-4.451,24-15,24A4.947,4.947,0,0,1,893.22,571.772Z" transform="translate(-884.732 -522.373)" fill="#aa8244"/>
        </g>
      </g>
      <g id="Grupo_22" data-name="Grupo 22" transform="translate(219.896 64.485)">
        <g id="Grupo_21" data-name="Grupo 21">
          <path id="Trazado_60" data-name="Trazado 60" d="M826.407,566.753c-2.193-8.4-5-16.9-5-19a4.506,4.506,0,0,1,3-4c0-.659-3.7-5-7-5-1.978,0-4.341,3.021-5,5a4.134,4.134,0,0,0-4-3c-.989,0-3,.681-3,2,.989.659,1,1.057,1,3,0,2.216-1.179,9.2-3,17-2.3,9.847-5.69,21.241-9,24,0,.989,2.543,4,6,4,1.978,0,3-2.67,3-3a6.354,6.354,0,0,0,4,2c.659,0,3-.022,3-2-3.167-1.408-3.46-7.038-3-13l9-1a29.982,29.982,0,0,1,1,5c0,2.308-2.011,4.011-3,5,0,.989,2.873,5,6,5,2.638,0,5.67-3.011,6-4a5.094,5.094,0,0,0,4,2,1.767,1.767,0,0,0,2-2C830.217,584.584,828.7,575.531,826.407,566.753Zm-12,2-7,1c.84-5.31,2.952-10.284,4-14C812.553,559.764,813.235,564.337,814.407,568.753Z" transform="translate(-794.633 -538.486)" fill="#aa8244"/>
        </g>
      </g>
      <g id="Grupo_24" data-name="Grupo 24" transform="translate(63.298 20.308)">
        <g id="Grupo_23" data-name="Grupo 23">
          <path id="Trazado_61" data-name="Trazado 61" d="M386.5,474.841h3c3.627,0,11.055,5,16,5,7.583,0,13-7.066,13-13,0-3.748-1.911-7.309-5-8a5.824,5.824,0,0,0-5-3c-.151,0-.85-.01-1,0,.076-.235,0,.212,0,0a4.717,4.717,0,0,0-3-4c1.068-.659,3-1.022,3-3,0-2.77-3.022-7-5-7,0,.977-2.18,4.328-4,6v-14c0-2.637,3.022-4,5-4a6.894,6.894,0,0,1,2,0c.844,1.2,1,3.1,1,5v4a21.671,21.671,0,0,1,4,2c1.978.33,5-3.033,5-6a7.025,7.025,0,0,0-2-5c.989-.989,2.989-2.352,2-4-1.479-1.451-3.011-1.681-4-3-1.648,1.319-5.4,2-11,2-3.3,0-7.362.7-10,4-.989-.989-2.022-3-4-3a3.249,3.249,0,0,0-3,3,5.6,5.6,0,0,1,3,5v30c0,3.637-1.681,7-3,7v2Z" transform="translate(-383.124 -422.397)" fill="#aa8244"/>
        </g>
      </g>
      <g id="Grupo_26" data-name="Grupo 26" transform="translate(96.926 15.033)">
        <g id="Grupo_25" data-name="Grupo 25">
          <path id="Trazado_62" data-name="Trazado 62" d="M479.235,457.254c2.489,2.734,6.6,4,11,4,8.242,0,15-5.736,15-12,0-2.308-3.7-7-7-7-.989,0-2.011.352-3,2,.989,3.3-1.066,12-7,12-.3,0-.723-.955-1-1-2.169-3.506-3-10.057-3-18,0-12.528,3.4-21,9-21,.088,0-.087-.007,0,0a10.145,10.145,0,0,1,1,8,18.7,18.7,0,0,0,3,2c4.286,2.308,8-1.7,8-5a8.823,8.823,0,0,0-2-5c1.095-.657,1-1.947,1-3,0-1.036-2.091-5-3-5-1.648,1.319-5.736,3-12,3s-18,6.878-18,26C471.235,448.1,473.982,454.859,479.235,457.254Z" transform="translate(-471.49 -408.535)" fill="#aa8244"/>
        </g>
      </g>
      <g id="Grupo_28" data-name="Grupo 28" transform="translate(129.894)">
        <g id="Grupo_27" data-name="Grupo 27">
          <path id="Trazado_63" data-name="Trazado 63" d="M561.9,391.784v31c0,2.967-2.682,5.341-4,6,0,.659,3.873,4,7,4,2.308,0,4.67-2.34,5-3a4.555,4.555,0,0,0,4,2c1.318,0,3-1.011,3-2-1.319,0-3-2.714-3-7v-10h2c1.382,0,2.651,1.276,4,2,6.542,5.87,12.559,16.854,21,22a20.382,20.382,0,0,0,13,5c.651,0,1.392.049,2,0a2.5,2.5,0,0,0-1,2c1.978,0,3,2.7,3,6v21c-1.418,1.769-2,3.96-2,7,0,4.219,5.6,13,14,13,13.517,0,23-12.835,23-28,0-10.1-4.189-17.093-10-20a12.134,12.134,0,0,0-9-4c-6.923,0-9.681,2.022-11,4a7.883,7.883,0,0,0-3-2,12,12,0,0,0,9-12c0-4.577-4.523-9.495-7-12,.659-.33.978-3.341-1-4a6.649,6.649,0,0,0,2-4c0-1.819-1.258-4.564-4-4-.438-1.5-2.081-3.291-4-3a4.494,4.494,0,0,0-2-1c.888-.548,3-1.355,3-3,0-2.43-3.355-6-5-6,0,.7-1.8,2.713-3,4v-9a4.431,4.431,0,0,1,4-4,3.652,3.652,0,0,1,1,0,4.958,4.958,0,0,1,1,3v4a29.942,29.942,0,0,0,4,2c1.348.224,3.224-.919,4-3,.8,1.308,2.807,1.909,4,2,1.029,2.483,3.444,2.519,5,2v-7c0-2.983.881-5.266,2-6a8.278,8.278,0,0,1,0,1v22c0,4.286-1.363,9.011-4,10,0,1.516,3.873,5,7,5,2.967,0,4.341-3.341,5-4,.659.659,2.022,3,4,3,1.648,0,4-1.351,4-3a5.123,5.123,0,0,1-4-5v-25c0-2.529.8-4.23,2-5,.088.4,1,.54,1,1v8l3,2a6.506,6.506,0,0,0,4-3,53.567,53.567,0,0,0-1,10c0,8.74,3.091,16.1,9,19a13.259,13.259,0,0,0,10,4c11.868,0,19-14.132,19-26,0-9.462-3.706-16.764-10-20-2.734-2.695-5.73-5-10-5-5.609,0-13.808,3.712-16,11a9.727,9.727,0,0,0-1-1,3.254,3.254,0,0,0,1-4l-3-4c-.33.66-1.985,3-3,3h-6c-2.308,0-6.061,1.692-7,4a4.461,4.461,0,0,0-4-2c-1.978,0-6.692,1-9,1-.989,0-1.67.659-2,0-1.009.5-.773,2.008,0,3-.878.64-2.178-2.629-3-4-1.371,1.1-4.339,2-9,2-2.742,0-6.807,1.259-9,4-.823-.822-1.355-2-3-2-1.371,0-3,.9-3,2,1.1.548,3,1.807,3,4v25c0,3.025-2.341,3.34-3,4,0,.659,2.543,4,6,4,1.978,0,3.341-2.341,4-3a8.511,8.511,0,0,0,3,2c-2.134,1.434-4,3.238-4,5,0,2.387,3.565,8,9,8,2.308,0,4.319-4.011,3-5-1.319,0-2-.351-2-2a3.868,3.868,0,0,1,4-4,7.562,7.562,0,0,1,3,1,8.827,8.827,0,0,1,2,6c0,4.945-2.088,10-10,10a8.032,8.032,0,0,1-4-1c-6.935-6.416-12.886-19.5-21-24a20.645,20.645,0,0,0-3-2,19.4,19.4,0,0,0,8-15,13.9,13.9,0,0,0-13-14c-7.253,0-13.011,3.692-14,6-.66-.659-1.692-3-4-3a4.937,4.937,0,0,0-4,3C559.219,386.784,561.9,389.806,561.9,391.784Zm74,52a6.093,6.093,0,0,1,1,0c2.152,3.349,3,9.593,3,18,0,12.857-4.45,24-15,24-.6,0-.319.272-1,0a7.87,7.87,0,0,1-2-5,14.44,14.44,0,0,1,0-3c.506,1.63,3.2,5,6,5a7.325,7.325,0,0,0,7-7,6.743,6.743,0,0,0-5-6,5.156,5.156,0,0,0-1-1c.384-.086.578.055,1,0v-18C629.9,446.828,632.6,443.784,635.9,443.784Zm26-51c1.8,1.944,4.112,4,6,4,4.945,0,9-4.725,9-10,0-2.71-1.249-4.646-4-5-.716-1.621-1.754-3-4-3-2.308,0-6.319,2.714-5,7,1.318-.33,2,.681,2,2a3.872,3.872,0,0,1-4,4c-.042,0,.041,0,0,0a13.348,13.348,0,0,1-1-5c0-6.264,4.418-13,12-13a9.86,9.86,0,0,1,2,0c2.968,4.15,4,12.714,4,21,0,8.2-2.494,19.875-9,20-2.119-3.714-3-10.6-3-17-1.185-.355-1.829-1.829-3-3h0c-.1-.029-.9.036-1,0-.533-.561-.534-1.366-1-2Zm-83-6c.057,0-.056,0,0,0a14.781,14.781,0,0,1,2,7c0,4.183-2.032,13.391-7,15v-14C573.9,390.168,576.263,386.784,578.9,386.784Zm38,23h0C616.927,409.766,616.874,409.8,616.9,409.784Z" transform="translate(-558.124 -369.032)" fill="#aa8244"/>
        </g>
      </g>
      <g id="Grupo_30" data-name="Grupo 30" transform="translate(132.497 76.023)">
        <g id="Grupo_29" data-name="Grupo 29">
          <path id="Trazado_64" data-name="Trazado 64" d="M577.139,571.535c-1.319,0-4.681,3.022-6,5a4.907,4.907,0,0,0-4-3c-.593,0-2.329,1.681-2,3,4.945,1.648,10.1,33.243,12,39a7.263,7.263,0,0,0,6,4c2.172,0,5.781-.905,6-2,.33-1.648,6.177-28.983,7-32,.989-3.626,4.352-10.67,6-11,0-1.781-3.352-6-5-6-1.432,0-3.67,3.011-4,4a4.737,4.737,0,0,0-4-2,3.249,3.249,0,0,0-3,3c2.308.659,4,4.044,4,8,0,1.754-2.346,13.5-4,21-2.23-7.917-5-18.767-5-22,0-1.978.681-3.341,2-4C583.139,574.755,579.447,571.535,577.139,571.535Z" transform="translate(-564.966 -568.807)" fill="#aa8244"/>
        </g>
      </g>
    </g>
  </g>
  <g id="Grupo_33" data-name="Grupo 33" transform="translate(0 41.93)">
    <path id="Trazado_65" data-name="Trazado 65" d="M286.561,470.226h-1c-.572,1.526.111,2.718,1,4a4.7,4.7,0,0,0,4,2c4.947,0,8-3.683,8-7,0-5.491-3.12-9-8-9a11.628,11.628,0,0,0-12,12,14.955,14.955,0,0,0,15,15c6.038,0,11.262-2.036,15-6,3.544-3.758,5-9.271,5-15,0-9.886-7.457-13.941-14-18-5.424-3.365-10-6.814-10-12a8.051,8.051,0,0,1,8-8c2.117,0,4.013,1.618,5,4,1.3,3.15.428,6.572,0,7h0c0,1.5,1.4,2,3,2,3.336,0,7-3.689,7-7,0-2.138-1.291-3.915-2-5a5.454,5.454,0,0,0,1-6h-1c-3.157,1.579-7.376,2-12,2-7.023,0-18,4.18-18,17,0,6.859,6.9,11.772,13,16,5.846,4.052,11,7.326,11,13,0,7.98-4.211,12-12,12-5.932,0-11-6.2-11-11,0-5.013,2.56-8,5-8,1.294,0,3,.706,3,2A4.979,4.979,0,0,1,286.561,470.226Z" transform="translate(-254.561 -401.156)" fill="#d1ac37"/>
    <path id="Trazado_66" data-name="Trazado 66" d="M382.96,471.452a2.359,2.359,0,0,1,2-1c1.539,0,4.227,1.827,7,3,3.483,1.472,7.2,3,10,3,8.279,0,13-9.071,13-15,0-4.93-2.859-8-7-8a9.438,9.438,0,0,0-9,9c0,3.457,2.153,6,5,6,1.8,0,2.968-1.331,4-3,.97-1.569,1.513-3.973,1-5h0a2.227,2.227,0,0,1-2-2c0-.943,1.066-1,2-1,1.627,0,3,1.153,3,4,0,5.515-5.421,9-9,9a31.109,31.109,0,0,1-9-1c-.739-.226-1.4-.864-2-1,1.416-1.484,4-4.166,4-8v-10c2.577.532,4.759,2.554,5,4h0c1.386,0,4-2.336,4-4,0-1.453-1.758-2.289-3-3,1.064-.714,3-2.285,3-4,0-1.825-.81-4-3-4h-1v1c0,1.079-2.285,5.062-5,6v-17c0-2.295,1.441-4,3-4a7.1,7.1,0,0,1,7,7v5c.119.02.874,0,1,0,2.37,0,6-3.781,6-7a7.561,7.561,0,0,0-2-5c1.472-1.669,1.834-3.61,1-5h-1c-1.566,1.252-4.9,2-10,2-4.543,0-7.745.592-10,3-.023-.026-.977.026-1,0-.881-.994-1.106-2-3-2-1.929,0-5,1.224-5,3v1h1c.49.245,3,1.25,3,4v30c0,3.718-2.354,7-3,7h-1v3Z" transform="translate(-318.96 -399.381)" fill="#d1ac37"/>
    <path id="Trazado_67" data-name="Trazado 67" d="M655.933,394.929v25a4.8,4.8,0,0,1-2,4c-.12.109.089-.089,0,0h0v1c0,1.133,1.571,1,3,1a5.5,5.5,0,0,0,4-2,6.529,6.529,0,0,0,4,1,8.221,8.221,0,0,0,3,0,31.148,31.148,0,0,1,7-1c1.027,0,2.358-.291,3,0h0a2.254,2.254,0,0,0,1-2,2.2,2.2,0,0,0-1-2,8.064,8.064,0,0,0,1-4c0-2.042-1.345-5-4-5a5.785,5.785,0,0,0-2,0h0v1c.561,1.495-.208,5.413-2,8a3.745,3.745,0,0,1-3,2c-1.69,0-3-1.9-3-4v-8c2.048.478,3.809,1.852,4,3v1h0c1.2,0,3-2.57,3-4,0-1.191-.005-1.377-1-2,.867-.607,1-1.6,1-3,0-1.693-.219-4-2-4h-1v1c0,.912-1.9,4.144-4,5v-14a3.14,3.14,0,0,1,3-3c2.471,0,5,2.333,5,6v4h1c.105.017-.111,0,0,0,2.015,0,5-3.271,5-6a6.267,6.267,0,0,0-1-4c1.2-1.4.709-2.819,0-4v-1l-1,1c-1.273,1.018-3.9,1-8,1-3.754,0-7.1,1.033-9,3-.706-.8-1.393-2-3-2-1.654,0-4,1.464-4,3v1h1A3.029,3.029,0,0,1,655.933,394.929Z" transform="translate(-486.933 -377.858)" fill="#d1ac37"/>
    <path id="Trazado_68" data-name="Trazado 68" d="M485.7,457.933c8.611,0,17-6.326,17-13a3.815,3.815,0,0,0-4-4c-.846,0-3.755-.074-5,2v1h0c.608,2.026.739,5.663-1,8-1.114,1.5-3.252,2-5,2-4.56,0-6-6.092-6-20,0-13.212,2.252-21,7-21a4.112,4.112,0,0,1,3,2,9.369,9.369,0,0,1,1,8h0l1,1c.864.465,1.156,0,2,0,3.5,0,6-4.125,6-7a6.7,6.7,0,0,0-1-4,4.537,4.537,0,0,0,1-4c-.17-.615-.468-1-1-1h-1c-1.572,1.258-5.352,2-11,2-3.046,0-6.984,1.4-11,6-3.063,3.511-7,10.177-7,21C470.7,451.328,475.127,457.933,485.7,457.933Z" transform="translate(-373.698 -391.863)" fill="#d1ac37"/>
    <path id="Trazado_69" data-name="Trazado 69" d="M560.949,409.567v31c0,2.654-2.861,5.431-4,6h0c0,1.284,2.978,3,4,3,2.1,0,4.058-2.759,5-4a4.877,4.877,0,0,0,4,2c1.634,0,4-1.568,4-3h-1c-.765,0-3-2.931-3-7v-8h1c4.919,0,9.837,5.783,15,12,6.459,7.777,14.495,16,24,16,10.932,0,15-6.272,15-13,0-6.5-5.817-12-11-12-6.313,0-11,4.341-11,8a6.476,6.476,0,0,0,6,6,4.43,4.43,0,0,0,4-3,3.4,3.4,0,0,0-1-3h0c-.594,0-2,.488-2-1,0-1.369,1.522-4,4-4,3.465,0,8,4.027,8,9,0,2.32-.823,10-10,10-5.789,0-9.973-7.05-15-14-4.7-6.5-9.818-13.115-16-15a21.357,21.357,0,0,0,3-3c3.513-3.907,6-8.812,6-13,0-6.606-4.362-10-12-10-6.832,0-11.442,1.784-13,4-.714-.89-1.006-2-3-2-.611,0-4.125.375-5,3v1h1C558.748,405.567,560.949,407.812,560.949,409.567Zm9,0c0-4.274,2.817-7,5-7,1.06,0,4-.231,4,9,0,4.441-1.327,14-7,14h-2Z" transform="translate(-426.949 -386.497)" fill="#d1ac37"/>
    <path id="Trazado_70" data-name="Trazado 70" d="M724.149,381.9a15.162,15.162,0,0,0-1,5c0,4,2.48,6,5,6,.494,0,1.572-.857,2-1h0v-7c0-3.512,2.053-6,3-6,1.46,0,2,2.479,2,4v21c0,4.232-1.791,9.172-4,10h0v1c0,1.187,1.136,2,3,2a6.074,6.074,0,0,0,5-3,5.429,5.429,0,0,0,4,2c1.886,0,5-.877,5-3v-1h-1c-.469-.062-2-.847-2-4v-26c0-2.915.753-4,2-4,.508,0,2,.62,2,3v9h1c2.859-.357,6-4.61,6-9a4.447,4.447,0,0,0-1-3,6.236,6.236,0,0,0,1-2c.283-.97.475-1.208,0-2l-1-1v1a5.964,5.964,0,0,1-3,1,18.456,18.456,0,0,1-2,0c-.878-.089-1.716,0-3,0-2.114,0-5.493.817-7,3a7.859,7.859,0,0,0-5-2,17.262,17.262,0,0,0-4,1,23.1,23.1,0,0,1-5,1c-.71,0-.768.464-1,0v-1h-1c-.862.431-1.167,1.759-1,3A2.617,2.617,0,0,0,724.149,381.9Z" transform="translate(-530.149 -369.834)" fill="#d1ac37"/>
    <path id="Trazado_71" data-name="Trazado 71" d="M809.531,393.637c0,12.811,6.036,21,16,21,12.015,0,19-13.316,19-26,0-13.606-6.549-23-17-23-6.981,0-17,4.312-17,15a11.477,11.477,0,0,0,0,2C809.785,384.387,809.531,389.747,809.531,393.637Zm16-24c5.7,0,8,6.268,8,22,0,9.4-1.409,20-7,20-3.854,0-6-9.73-6-19v-1h-1c-.075-.022.077.028,0,0,.237.032.773,0,1,0a10.094,10.094,0,0,0,10-10,5.771,5.771,0,0,0-6-6c-1.439,0-3.717.263-5,2a5.427,5.427,0,0,0-1,5l1,1h0c.084-.021-.086,0,0,0,.774,0,2,.158,2,1,0,1.747-1.865,3-4,3-2.367,0-4-2.254-4-6A12.058,12.058,0,0,1,825.531,369.637Z" transform="translate(-583.531 -365.567)" fill="#d1ac37"/>
    <path id="Trazado_72" data-name="Trazado 72" d="M366.127,589.214v1c8.4,13.573,19.363,30.939,20,32h0a5.376,5.376,0,0,0,3,1c1.563,0,4-.8,4-2v-34c0-5.427,1.581-14.291,5-16h0v-1c0-1.36-.6-2-2-2a6.888,6.888,0,0,0-5,3,4.735,4.735,0,0,0-4-2c-1.379,0-4,.9-4,3v1h0c1.279.256,7,5.28,7,12v21c-2.41-3.8-8.037-12.811-13-21-5.857-9.664-12.977-14-21-14-8.981,0-17,8.527-17,17,0,6.113,3.478,10,9,10,6.581,0,10-5.958,10-10,0-5.177-2.444-6-5-6-2.233,0-4.95,1.106-6,3a3.765,3.765,0,0,0,0,4h1c.058-.019-.076,0,0,0a2.453,2.453,0,0,1,2,2c0,1.912-2.673,3-4,3-2.581,0-4-3.236-4-6,0-6.6,4.177-12,10-12,3.822,0,7.257,2.274,10,6v26c0,5.635-4.262,14.175-7,16h0v1c0,1.537,1.817,2,3,2,2.11,0,3.981-1.643,5-3a6,6,0,0,0,4,2c1.832,0,4-1.5,4-3v-1h0c-2.061-1.179-6-7.615-6-13v-22C365.5,587.8,365.74,588.588,366.127,589.214Z" transform="translate(-292.127 -491.144)" fill="#d1ac37"/>
    <path id="Trazado_73" data-name="Trazado 73" d="M446.922,639.118c-12.3-6.211-28.1-10-46-10-18.87,0-35.794,3.856-49,10-13.373,6.222-22.38,14.224-26,25-8.11-3.252-14.851-5.673-21-8,11.7-12.961,18.837-26.962,22-36,.562-1.6,1.122-4.272,2-8l11-2c.994,3.856,2,7.108,2,8,0,2.035-2.027,3.027-3,4v1h0c0,1.537,1.817,2,3,2a8.14,8.14,0,0,0,6-3c.715.889,1.016,2,3,2,2.069,0,4-1.7,4-3v-1h0c-.176-.013-1.288-.248-3-5-1.2-3.319-2.949-7.974-4-12-2.75-10.533-4-17.31-4-19a2.928,2.928,0,0,1,2-3v-1h0c0-1.11-.76-2-3-2a8.308,8.308,0,0,0-6,3,4.627,4.627,0,0,0-4-2,3.162,3.162,0,0,0-3,3h0a3.51,3.51,0,0,1,2,3c0,1.8-5.05,22.855-9,34a104.891,104.891,0,0,1-22,36c-25.919-9.636-43.274-14-54-14-17.088,0-31,10.275-31,23,0,6.833,2.147,11.392,7,15,5.081,3.778,12.807,6,23,6,17.661,0,34.806-6.628,50-20l3,1c8.045,3.556,16.323,7.33,25,11,.674,20.98,17.579,34,45,34a44.375,44.375,0,0,0,28-10c9.415,1.752,17.985,3,26,3a48.1,48.1,0,0,0,32-12c8.257-7.44,13-16.865,13-26C467.922,655.229,460.289,645.869,446.922,639.118Zm-113-50c1.375,4.733,3.42,12.087,5,18l-9,1C331.494,601.178,333.1,593.139,333.922,589.118Zm-89,92c-15.184,0-25-7.352-25-18,0-4.749,2.254-8.026,6-11,4.128-3.277,9.56-5,17-5,9.734,0,27.564,6.567,49,16C277.583,674.913,260.927,681.118,244.922,681.118Zm124,26c-20.274,0-33.666-12.876-36-26,23.144,9.424,42.265,15.432,59,19A39.4,39.4,0,0,1,368.922,707.118Zm83-18a39.2,39.2,0,0,1-26,10c-4.874,0-12.13-.909-22-4,6.31-7.58,10-17.017,10-25,0-9.881-3.006-20-12-20-3.882,0-7,2.506-7,6a4.923,4.923,0,0,0,2,4,6.436,6.436,0,0,0,4,2,6.917,6.917,0,0,0,3-1v-1h0c-.444-.333-1.194-1.42-1-2a2.573,2.573,0,0,1,2-1c.54,0,5,.5,5,13,0,5.6-3.036,15.061-10,23-15.394-5.1-34.987-12.846-55-21-3.765-1.534-7.213-2.465-11-4,2.887-11.814,11.37-20.785,26-27,11.405-4.845,26.665-8,41-8,17.21,0,33.467,2.963,45,9,11.651,6.1,18,14.664,18,24C463.922,674.02,459.245,682.642,451.922,689.118Z" transform="translate(-215.922 -497.048)" fill="#d1ac37"/>
    <path id="Trazado_74" data-name="Trazado 74" d="M579.6,574.214v-1h0c0-1.445-1.379-2-3-2-1.379,0-3.543,1.236-5,3a5.1,5.1,0,0,0-4-2c-.7,0-2.359.179-3,1-.6.772-.106,1.578,0,2v1h0c3.008,1,6.735,17.15,9,27,1.286,5.587,2.239,10.152,3,12,.38.922,1.375,1,3,1,2.181,0,5.685-.425,6-2,.256-1.281,6.148-28.877,7-32,1.173-4.3,4.941-10.75,6-11h0v-1a1.748,1.748,0,0,0-2-2c-1.37,0-3.18,1.861-4,3-.708-.757-1.25-2-3-2-1.918,0-4,1.073-4,3v1h0c1.92.548,3,3.263,3,7,0,1.852-2.459,17.255-4,24-2.3-7.154-7-22.947-7-27A3.06,3.06,0,0,1,579.6,574.214Z" transform="translate(-431.603 -491.144)" fill="#d1ac37"/>
    <path id="Trazado_75" data-name="Trazado 75" d="M673,561.311h0a2.842,2.842,0,0,0-3-3c-1.591,0-3.956,2.368-5,4a5.647,5.647,0,0,0-4-2c-1.37,0-3.957.932-4,3h0c1.776.237,3,3.846,3,6v29c0,3.613-1.431,4.059-3,5v1h0c0,1.337,1.281,2,3,2,1.4,0,2.908-.769,5-3a6.125,6.125,0,0,0,4,2c1.911,0,4-1.275,4-3v-1h-1c-.761,0-2-2.183-2-6v-27C670,565.35,671.423,561.574,673,561.311Z" transform="translate(-489.004 -485.241)" fill="#d1ac37"/>
    <path id="Trazado_76" data-name="Trazado 76" d="M707.132,587.871c0,6.217,4.854,11,10,11a23.585,23.585,0,0,0,18-8,31.37,31.37,0,0,0,7-20c0-13.2-7.489-23-17-23-6.945,0-9.624,3.353-11,5a5.466,5.466,0,0,0-4-2c-1.816,0-5,1.119-5,3v1h1c1.553,0,3,2.067,3,5v21C707.621,582.85,707.132,584.96,707.132,587.871Zm7-7c.623,0,1,1.057,1,2a2.343,2.343,0,0,1-2,2h-1v1c0,3.352,1.634,5,4,5a6.8,6.8,0,0,0,7-7c0-3.233-3.019-6.619-6-7,.177-.031.815.024,1,0h1v-1c0-.14,0-13.735,0-17,0-3.818,2.273-7,5-7,4.659,0,7,6.468,7,20,0,7.044-1.5,24-14,24-2.608,0-7-4.125-7-8C710.132,583.72,712.421,580.871,714.132,580.871Z" transform="translate(-519.132 -478.801)" fill="#d1ac37"/>
    <path id="Trazado_77" data-name="Trazado 77" d="M903.683,518.625c-6.432,0-9.391,2.869-11,5a5.5,5.5,0,0,0-4-2c-1.815,0-5,1.119-5,3v1h1c1.553,0,3,2.067,3,5v23c-1.51,1.978-2,4.089-2,7,0,6.217,4.854,11,10,11a23.586,23.586,0,0,0,18-8c4.378-5.2,6-12.438,6-20C919.683,529.991,912.955,518.625,903.683,518.625Zm-8,50c-2.608,0-7-4.125-7-8,0-4.151,1.288-7,3-7,.622,0,2,1.057,2,2a2.343,2.343,0,0,1-2,2h-1v1c0,3.352,1.633,5,4,5a6.8,6.8,0,0,0,7-7c0-3.233-3.019-6.619-6-7,.177-.03.815.024,1,0h0v-1c0-.16,1-15.736,1-19,0-3.818,2.273-7,5-7,4.465,0,7,7.756,7,22C909.683,551.669,908.181,568.625,895.683,568.625Z" transform="translate(-629.683 -460.555)" fill="#d1ac37"/>
    <path id="Trazado_78" data-name="Trazado 78" d="M825.871,575.431c-1.2-3.319-1.949-7.974-3-12-2.75-10.533-4-17.31-4-19,0-1.99.253-3.752,1-4h1c0-1.11-1.76-2-4-2a6.414,6.414,0,0,0-5,3,4.626,4.626,0,0,0-4-2c-1.225,0-4,.159-4,2v1h1c.881.588,1,.374,1,2,0,1.808-1.781,7.489-4,17-2,8.576-4.694,21.245-8,24h0c0,1.425,1.731,2,3,2,1.627,0,2.273-.82,3-2,.61.749,1.463,1,3,1,1.1,0,4-.566,4-3h0c-2.715-1.206-3.373-6.441-3-12l11-1a32.307,32.307,0,0,1,1,8,5.176,5.176,0,0,1-2,4h0v1c0,1.537,1.817,2,3,2a6.11,6.11,0,0,0,5-3,5.08,5.08,0,0,0,4,2c2.069,0,4-2.7,4-4h-1C828.7,580.418,827.583,580.183,825.871,575.431Zm-22-7c.855-6.8,3.471-14.009,5-19,1.377,4.731,3.365,11.883,5,18Z" transform="translate(-573.871 -472.361)" fill="#d1ac37"/>
  </g>
  <g id="Grupo_35" data-name="Grupo 35" transform="translate(0.659 42.589)">
    <g id="Grupo_34" data-name="Grupo 34" transform="translate(0 0)">
      <path id="Trazado_79" data-name="Trazado 79" d="M299.634,426.666c4.616,0,9.7.648,13-1,1.319,2.637-1.341,4.341-2,5a7.7,7.7,0,0,1,2,5c0,2.9-3.033,7-6,7a1.918,1.918,0,0,1-2-2c1.319-1.319.593-12-6-12-4.616,0-8,4.055-8,9,0,12.2,24,12.527,24,30,0,11.209-7.8,20-20,20-8.572,0-15-6.747-15-14a12.031,12.031,0,0,1,12-12c4.945,0,7,4.384,7,9a7.064,7.064,0,0,1-7,7,4.389,4.389,0,0,1-4-6,4.345,4.345,0,0,0,3-4,3.011,3.011,0,0,0-3-3c-2.967,0-6,3.725-6,9s5.736,12,12,12c8.242,0,13-4.758,13-13,0-12.2-24-16.143-24-29C282.634,431.8,292.381,426.666,299.634,426.666Z" transform="translate(-256.293 -403.255)" fill="#77030e"/>
      <path id="Trazado_80" data-name="Trazado 80" d="M384.033,428.056a5.6,5.6,0,0,1,3,5v30c0,3.637-1.681,7-3,7v2h2c3.627,0,12.055,5,17,5,7.583,0,12-8.066,12-14,0-4.286-2.044-7-6-7a8.171,8.171,0,0,0-8,8c0,3.3,1.692,5,4,5,3.956,0,5.659-4.681,5-6a3.567,3.567,0,0,1-3-3c0-1.319,1.681-2,3-2,1.978,0,3,1.7,3,5,0,5.934-5.044,10-9,10-6.594,0-9.692-3-12-3,.989-.989,4-3.384,4-8v-31c0-2.638,2.022-5,4-5,3.3,0,7,3.055,7,8v4c1.978.33,6-3.033,6-6a7.025,7.025,0,0,0-2-5c.989-.989,1.989-2.352,1-4-1.648,1.319-4.4,1-10,1-3.3,0-7.362.7-10,4a5.248,5.248,0,0,0-4-2C386.385,426.056,384.033,426.738,384.033,428.056Z" transform="translate(-320.692 -401.645)" fill="#77030e"/>
      <path id="Trazado_81" data-name="Trazado 81" d="M412.4,480.719c3.3,0,8-5.351,8-7,1.978,0,2,2.011,2,3,0,1.978-1.932,3.341-3,4,1.4.33,3,1.352,3,3,0,1.319-2.011,4-3,4-.33-1.978-3.7-5-7-5C411.411,482.719,411.081,480.719,412.4,480.719Z" transform="translate(-338.059 -433.308)" fill="#77030e"/>
      <path id="Trazado_82" data-name="Trazado 82" d="M665.006,419.534v-25a4.431,4.431,0,0,1,4-4c2.742,0,6,2.887,6,7v3c1.645.274,4-2.533,4-5s-.726-3.726-1-4c.822-.823,1.822-2.629,1-4-1.371,1.1-4.34,2-9,2-2.742,0-6.807.259-9,3-.822-.822-1.355-2-3-2-1.371,0-3,.9-3,2,1.1.548,3,1.807,3,4v25c0,3.025-2.341,4.341-3,5,0,.659,2.011,1,3,1,1.978,0,3.34-2.341,4-3a5.758,5.758,0,0,0,4,2c1.978,0,9.374-3.649,13-2,.659-.33.978-2.341-1-3,.989-.659,1-3.011,1-4,0-1.978-.7-5.319-4-4,.989,2.637-1.714,11-6,11C667.028,424.534,665.006,422.122,665.006,419.534Z" transform="translate(-488.665 -380.122)" fill="#77030e"/>
      <path id="Trazado_83" data-name="Trazado 83" d="M679.448,434.626c2.741,0,6-4.629,6-6,1.645,0,2,2.178,2,3,0,1.645-2.112,2.452-3,3,1.163.274,3,.629,3,2,0,1.1-2.178,3-3,3a5.323,5.323,0,0,0-5-4C678.626,435.626,678.351,434.626,679.448,434.626Z" transform="translate(-503.107 -405.215)" fill="#77030e"/>
      <path id="Trazado_84" data-name="Trazado 84" d="M472.772,438.007c0-19.121,10.736-27,17-27s10.351.319,12-1c.989,0,.648,3.011-1,4,.659.66,1,2.022,1,4,0,3.3-2.714,8.308-7,6,1.648-4.945-1.374-11-5-11-5.6,0-8,9.472-8,22,0,11.868,1.066,21,7,21s7.989-7.7,7-11a4.737,4.737,0,0,1,4-2c1.649,0,3,.692,3,3,0,6.264-7.758,12-16,12C477.211,458.007,472.772,452.842,472.772,438.007Z" transform="translate(-375.431 -393.595)" fill="#77030e"/>
      <path id="Trazado_85" data-name="Trazado 85" d="M559.437,405.64c.659-1.978,3.011-2,4-2,2.308,0,2.341,1.341,3,2,.989-2.308,5.747-5,13-5,7.912,0,11,4.4,11,10,0,8.242-8.769,19-18,19h-2v-2h3c6.264,0,8-10.384,8-15,0-7.253-2.033-10-5-10-2.638,0-5,3.385-5,8v28c0,4.286,1.681,7,3,7,0,.989-1.681,3-3,3-2.637,0-4.34-2.341-5-3-.33.659-1.692,4-4,4-.989,0-3-1.341-3-2,1.319-.66,3-3.033,3-6v-31C562.437,408.662,560.756,405.64,559.437,405.64Z" transform="translate(-429.096 -388.229)" fill="#77030e"/>
      <path id="Trazado_86" data-name="Trazado 86" d="M726.224,380.077c.33.659.011,1,1,1,2.308,0,7.022-2,9-2a6.425,6.425,0,0,1,5,2c.938-2.308,4.692-4,7-4s3.351,1,5,1a4.834,4.834,0,0,0,3-2,3.254,3.254,0,0,1-1,4c.659.659,2,1.352,2,3,0,3.956-3.363,7.67-6,8v-8c0-2.638-2.011-4-3-4-1.648,0-3,1.7-3,5v26c0,3.626,2.341,5,3,5,0,1.649-2.352,2-4,2a5.758,5.758,0,0,1-4-2c-.659.659-2.033,3-5,3-1.648,0-3-.34-3-1,2.638-.989,4-6.714,4-11v-21c0-2.308-.352-4-2-4-1.319,0-4,2.044-4,6v7c-1.978.659-5-.385-5-5a12.836,12.836,0,0,1,1-5C724.575,383.747,724.905,380.736,726.224,380.077Z" transform="translate(-531.883 -372.666)" fill="#77030e"/>
      <path id="Trazado_87" data-name="Trazado 87" d="M820.6,383.71c-1.319-4.286,2.692-7,5-7,3.3,0,5,3.033,5,6a8.826,8.826,0,0,1-9,9c-3.627,0-9-4.725-9-10,0-10.22,9.406-14,16-14,10.55,0,17,9.472,17,22,0,11.868-7.132,25-19,25-10.22,0-16-8.461-16-20,0-4.615,1.341-10.341,2-11,.659,3.3,4.7,9.011,8,10,0,9.231,2.384,19,7,19,6.593,0,8-11.758,8-20,0-11.868-1.417-23-9-23s-12,6.736-12,13c0,4.286,1.363,7,4,7s5-2.022,5-4C823.6,384.392,821.922,383.381,820.6,383.71Z" transform="translate(-585.263 -367.299)" fill="#77030e"/>
      <path id="Trazado_88" data-name="Trazado 88" d="M594.536,469.875c17.473-6.264,25.153,29,39,29,7.912,0,11-6.055,11-11,0-5.275-5.01-9-9-9-2.933,0-5,2.351-5,4s1.681,2,3,2c1.319.989-.692,4-3,4a5.168,5.168,0,0,1-5-5c0-3.3,4.066-7,10-7,4.615,0,11,4.736,11,11,0,6.594-4.78,13-15,13-16.814,0-27.461-29-39-29C588.25,471.875,594.536,469.875,594.536,469.875Z" transform="translate(-449.195 -430.464)" fill="#77030e"/>
      <path id="Trazado_89" data-name="Trazado 89" d="M340.2,589.288c0-8.242,8.428-16,17-16,8.654,0,14.983,5.722,20,14,6.594,10.879,14,22,14,22v-23c0-6.959-5.351-12.67-7-13,0-1.648,3.011-2,4-2,2.308,0,3.341.681,4,2,.659-1.978,3.352-3,5-3,.989,0,2,.011,2,1-3.956,1.978-6,12.055-6,17v34c0,.989-4.341,1.659-5,1-.627-1.045-11.429-19.153-20-33-4.946-7.989-8.736-13-15-13-5.934,0-10,4.747-10,12,0,3.3,1.033,7,4,7a4.327,4.327,0,0,0,4-4c0-1.649-1.011-2.33-2-2-1.648-2.638,1.374-7,5-7s5,2.7,5,6c0,3.627-3.736,9-10,9C343.6,598.288,340.2,594.563,340.2,589.288Z" transform="translate(-293.859 -492.877)" fill="#77030e"/>
      <path id="Trazado_90" data-name="Trazado 90" d="M388.96,603.68v26c0,5.761-4.033,15.022-7,17,0,.989,2.011,1,3,1,2.308,0,4.67-2.011,5-3a5.758,5.758,0,0,0,4,2c1.649,0,4-1.011,4-2-2.308-1.319-7-8.4-7-14v-28Z" transform="translate(-319.619 -513.269)" fill="#77030e"/>
      <path id="Trazado_91" data-name="Trazado 91" d="M330.995,583.191c0-1.319,2.011-2,3-2,2.967,0,3.67,1.341,4,2,.659-1.978,4.022-4,6-4s3,1.341,3,2a4.506,4.506,0,0,0-3,4c0,2.1,2.807,10.6,5,19,2.292,8.778,3.81,17.831,6,18,0,.989-1.352,2-3,2-2.308,0-2.341-1.341-3-2-.33.989-3.363,4-6,4a2.169,2.169,0,0,1-2-2,7.038,7.038,0,0,0,2-5c0-3.3-8-31-8-31s-5.934,27.1-8,33c-6.923,19.781-35.163,65-80,65-20.77,0-29-8.143-29-21,0-12.2,13.186-23,30-23,38.243,0,148.34,59,179,59,20.111,0,38-17.186,38-34,0-20.11-27.724-34-63-34-27.034,0-69,11.043-69,45,0,16.154,15.241,31,37,31,29.342,0,42-26.461,42-38,0-12.2-4.526-13-6-13-2.308,0-3.319,2.011-2,3-2.638,1.649-7,.616-7-4a6.022,6.022,0,0,1,6-6c8.9,0,11,11.428,11,20,0,16.484-16.966,41-44,41-26.7,0-45-12.912-45-35,0-29.012,33.812-46,77-46,35.276,0,66,13.582,66,36,0,18.132-19.6,37-44,37-64.947,0-152.307-57-180-57-16.154,0-24,7.44-24,17,0,10.55,9.846,19,26,19,39.232,0,69.769-35.956,79-62,4.009-11.311,8-33.057,8-35S331.984,583.85,330.995,583.191Z" transform="translate(-217.654 -498.78)" fill="#77030e"/>
      <path id="Trazado_92" data-name="Trazado 92" d="M565.676,576.288c-.33-1.318,2.407-3,3-3a4.906,4.906,0,0,1,4,3c1.319-1.978,3.681-4,5-4a1.936,1.936,0,0,1,2,2c-1.319.66-2,2.022-2,4,0,4.616,6.022,24.725,8,30,.989-3.956,5-24.692,5-27,0-3.956-1.692-7.34-4-8,0-1.648,2.681-2,4-2,1.978,0,2.34,1.011,3,2,.329-.989,2.568-3,4-3,.989,0,1,.011,1,1-1.648.33-4.011,8.373-5,12-.823,3.017-7.671,30.351-8,32s-6.158,3.045-7,1C576.368,610.683,570.621,577.937,565.676,576.288Z" transform="translate(-433.335 -492.877)" fill="#77030e"/>
      <path id="Trazado_93" data-name="Trazado 93" d="M658.1,564.385c.034-1.621,3.011-3,4-3,2.308,0,3.341,2.341,4,3,.33-1.648,3.352-4,5-4s3,1.011,3,2c-1.978.33-4,3.7-4,7v27c0,3.956,1.681,7,3,7,0,1.236-1.352,2-3,2a5.974,5.974,0,0,1-4-2c-.6.667-3.022,4-5,4-1.319,0-3-1.011-3-2,1.648-.989,4-2.044,4-6v-29C662.1,568.077,660.372,564.687,658.1,564.385Z" transform="translate(-490.757 -486.973)" fill="#77030e"/>
      <path id="Trazado_94" data-name="Trazado 94" d="M707.205,554.945c0-1.319,2.352-3,4-3,1.978,0,3.011,2.011,4,3,1.319-1.978,4.077-5,11-5,8.9,0,16,8.813,16,22,0,15.165-10.483,27-24,27-4.616,0-10-4.066-10-10,0-6.923,5.055-10,10-10,2.967,0,5,3.033,5,6,0,3.3-2.044,7-6,7-1.978,0-3-2.033-3-5,1.649-.33,2-2.011,2-3,0-1.319-.011-3-1-3-2.308,0-5,3.714-5,8s5.033,8,8,8c10.55,0,14-11.142,14-24s-1.4-21-7-21c-3.3,0-6,4.044-6,8v17a9.55,9.55,0,0,0-8,6v-22C711.205,557.648,709.183,554.945,707.205,554.945Z" transform="translate(-520.864 -480.534)" fill="#77030e"/>
      <path id="Trazado_95" data-name="Trazado 95" d="M885.756,525.7c0-1.319,2.351-2,4-2a5.248,5.248,0,0,1,4,2c1.319-1.978,4.077-5,11-5,8.9,0,16,10.813,16,24,0,15.165-10.483,27-24,27-4.616,0-10-4.066-10-10,0-6.923,5.055-10,10-10,2.967,0,5,3.033,5,6,0,3.3-2.044,7-6,7-1.978,0-3-2.033-3-5,1.648-.33,2-2.011,2-3a1.936,1.936,0,0,0-2-2c-2.308,0-4,2.714-4,7s5.033,8,8,8c10.55,0,14-11.143,14-24s-1.4-22-7-22c-3.3,0-6,3.044-6,7v19a12.289,12.289,0,0,0-9,6v-24C888.756,528.4,887.734,525.7,885.756,525.7Z" transform="translate(-631.415 -462.287)" fill="#77030e"/>
      <rect id="Rect치ngulo_2" data-name="Rect치ngulo 2" width="15.192" height="1.978" transform="matrix(0.991, -0.137, 0.137, 0.991, 111.138, 111.611)" fill="#77030e"/>
      <path id="Trazado_96" data-name="Trazado 96" d="M806.944,545.5c0-1.943-.011-2.341-1-3,0-1.319,2.011-1,3-1,2.967,0,3.67,1.34,4,2,.659-1.978,3.022-4,5-4s3,1.34,3,2c-.989.33-2,1.692-2,4,0,2.1,1.807,10.6,4,19,2.292,8.778,4.81,16.831,7,17,0,.989-1.352,3-3,3-2.308,0-3.341-2.341-4-3-.33.989-2.362,4-5,4-.989,0-3-.011-3-1,.989-.989,3-2.692,3-5,0-3.3-8-32-8-32s-10.9,33.044-2,37c0,1.978-3.34,3-4,3-1.978,0-2.67-2.67-3-3,0,.33-1.022,4-3,4a2.169,2.169,0,0,1-2-2c3.31-2.759,5.7-13.154,8-23C805.766,555.7,806.944,547.72,806.944,545.5Z" transform="translate(-575.603 -474.094)" fill="#77030e"/>
      <rect id="Rect치ngulo_3" data-name="Rect치ngulo 3" width="15.192" height="1.978" transform="matrix(0.991, -0.137, 0.137, 0.991, 227.845, 96.446)" fill="#77030e"/>
    </g>
  </g>
  <g id="Grupo_37" data-name="Grupo 37" transform="translate(267.869 49.874)">
    <g id="Grupo_36" data-name="Grupo 36" transform="translate(0)">
      <path id="Trazado_97" data-name="Trazado 97" d="M931.962,419.57c.221,0,0,.691,0,1,0,.795-1.764,1-3,1-2.163,0-3-2.659-3-8-.927,3.84-1.587,5-3,5-1.721,0-3-2.041-3-8,0-7.2,1.792-10,4-10a3.221,3.221,0,0,1,3,2c0-2.251-.045-8.925,0-11,.088-2.825-.016-5,1-5,1.1,0,2,2.513,2,6,0,2.913-1,10.555-1,17,0,8.167,1.073,11,2,11C931.448,420.57,931.653,419.57,931.962,419.57Zm-5-16c-1.1,0-2.029-2-3-2-1.281,0-2,2.512-2,9,0,4.415,1.205,6,2,6,.839,0,.985-1.63,2-6Z" transform="translate(-919.831 -386.444)" fill="#77030e"/>
      <path id="Trazado_98" data-name="Trazado 98" d="M969.649,427.479c-.309-.971-1-1.691-1-2s.515,0,1,0c1.192,0,2,1.484,2,4,0,7.416-4.511,12-11,12-5.474,0-9-3.776-9-10,0-7.857,2.323-11,4-11,2.3,0,4,2.733,4,6,0,3.134-1.513,5.91-5,9a7.188,7.188,0,0,0,7,5c5.385,0,8-3.747,8-9C969.649,429.978,970,428.627,969.649,427.479Zm-15,7c2.339-2.472,3-3.219,3-6,0-3.753-2.029-7-3-7-.751,0-1,1.628-1,9C953.649,431.848,954.385,433.332,954.649,434.479Z" transform="translate(-939.519 -407.354)" fill="#77030e"/>
    </g>
  </g>
  <g id="Grupo_39" data-name="Grupo 39" transform="translate(26.247 130.58)">
    <g id="Grupo_38" data-name="Grupo 38" transform="translate(0)">
      <path id="Trazado_99" data-name="Trazado 99" d="M285.646,635.942c-.486-7.681-1-14.215-1-23,0-8.872,1.528-14,4-14,2.3,0,4,3.053,4,14,0,6.578-2.086,11.615-5,17,.442,11.212,1.588,15,3,15,.839,0,1.985-2.851,3-7,.088-.309.912,0,1,0s0-.441,0,0a16.6,16.6,0,0,1-1,4c-1.412,3.84-3.411,5-5,5C285.91,646.942,286.132,643.314,285.646,635.942Zm5-23c0-9.756-1.073-13-2-13-.662,0-1,1.363-1,9,0,3.267-.353,11.452,0,19A38.344,38.344,0,0,0,290.646,612.942Z" transform="translate(-284.893 -598.522)" fill="#77030e"/>
      <path id="Trazado_100" data-name="Trazado 100" d="M313.724,683.977c0-1.545-.132-2.278,0-4-1.456,7.681-2.9,8-4,8-1.81,0-4-2.542-4-7,0-7.5,2.219-12,5-12a2.75,2.75,0,0,1,3,2c.22-3.531.9-5,2-5,.53,0,1,.941,1,2a22.354,22.354,0,0,1,0,5c-.088,3.267-1,6.469-1,10,0,4.767,1.219,6,4,6a7.976,7.976,0,0,0,8-8c0-1.5-.646-1.853-1-3-.309-.971-1-1.691-1-2s.515-1,1-1c1.192,0,2,2.484,2,5,0,6.091-4.173,10-10,10C315.06,689.977,313.724,687.509,313.724,683.977Zm0-11c-.706-2.384-1.808-3-3-3-1.236,0-2,2.982-2,10,0,4.767.337,6,1,6,.838,0,2.278-1.657,4-10Z" transform="translate(-297.971 -640.557)" fill="#77030e"/>
    </g>
  </g>
  <g id="Grupo_41" data-name="Grupo 41" transform="translate(134.726 0.278)">
    <g id="Grupo_40" data-name="Grupo 40" transform="translate(0 0)">
      <path id="Trazado_101" data-name="Trazado 101" d="M585.229,289.146a14.211,14.211,0,0,0-4-1c-3.267,0-5,2.674-5,7,0,3.487.543,6.881,2,9a44.979,44.979,0,0,1,9-1c1.633,0,2-.486,2,0,0,.309-.161.691-1,1a5.372,5.372,0,0,1-5,4c-2.472,0-4.278-1.367-6-3-4.194,1.192-5,3.925-5,6,0,4.414,4.747,8,10,8s8.882-3.525,11-12c.044-.177-.088,0,0,0s1-.486,1,0c0,.706-.823,2.161-1,3-1.633,7.813-6.7,11-12,11-7.019,0-11-3.482-11-9,0-3.973,2.336-6.764,6-8a15.079,15.079,0,0,1-3-9c0-4.679,2.747-8,8-8,1.766,0,2.808-.486,4,0,.044-2.781.514-3,1-3,1.015,0,2,.954,2,4,0,6.71-.25,8-1,8-.662,0-1.956-.264-2-3Zm-6,16a7.32,7.32,0,0,0,5,2c1.633,0,2.646-1.764,3-3A43.6,43.6,0,0,0,579.229,305.146Z" transform="translate(-569.955 -273.424)" fill="#77030e"/>
      <path id="Trazado_102" data-name="Trazado 102" d="M630.451,289.835c-.486-7.681,0-11.216,0-20,0-8.872.528-14,3-14,2.3,0,4,3.052,4,14,0,5.438-1.953,11.936-4,14,.441,11.212.587,14,2,14,.838,0,2.985-1.851,4-6,.088-.309-.088-1,0-1s0,.559,0,1c0,.971.309,2.205,0,3-1.413,3.84-3.411,5-5,5C631.715,299.835,630.937,297.207,630.451,289.835Zm6-19c0-9.755-2.073-13-3-13-.662,0-1,1.363-1,9,0,3.266.647,6.452,1,14C634.6,278.868,636.451,277.7,636.451,270.835Z" transform="translate(-607.177 -256.113)" fill="#77030e"/>
    </g>
  </g>
</svg>
