
<svg xmlns="http://www.w3.org/2000/svg" xmlns:xlink="http://www.w3.org/1999/xlink" width="126.602" height="24.618" viewBox="0 0 126.602 24.618">
  <defs>
    <linearGradient id="linear-gradient" x1="0.37" y1="1.187" x2="0.673" y2="-0.411" gradientUnits="objectBoundingBox">
      <stop offset="0.142" stop-color="#aa1829"/>
      <stop offset="0.157" stop-color="#aa1829" stop-opacity="0.933"/>
      <stop offset="0.228" stop-color="#aa1829" stop-opacity="0.651"/>
      <stop offset="0.298" stop-color="#aa1829" stop-opacity="0.416"/>
      <stop offset="0.367" stop-color="#aa1829" stop-opacity="0.235"/>
      <stop offset="0.433" stop-color="#aa1829" stop-opacity="0.106"/>
      <stop offset="0.497" stop-color="#aa1829" stop-opacity="0.027"/>
      <stop offset="0.555" stop-color="#aa1829" stop-opacity="0"/>
    </linearGradient>
    <linearGradient id="linear-gradient-2" x1="0.693" y1="1.164" x2="0.321" y2="0.121" gradientUnits="objectBoundingBox">
      <stop offset="0" stop-color="#2580c3"/>
      <stop offset="0.039" stop-color="#2580c3" stop-opacity="0.796"/>
      <stop offset="0.083" stop-color="#2580c3" stop-opacity="0.612"/>
      <stop offset="0.132" stop-color="#2580c3" stop-opacity="0.443"/>
      <stop offset="0.187" stop-color="#2580c3" stop-opacity="0.306"/>
      <stop offset="0.249" stop-color="#2580c3" stop-opacity="0.192"/>
      <stop offset="0.321" stop-color="#2580c3" stop-opacity="0.106"/>
      <stop offset="0.409" stop-color="#2580c3" stop-opacity="0.043"/>
      <stop offset="0.534" stop-color="#2580c3" stop-opacity="0.008"/>
      <stop offset="0.88" stop-color="#2580c3" stop-opacity="0"/>
    </linearGradient>
    <linearGradient id="linear-gradient-3" x1="0.752" y1="1.262" x2="0.457" y2="0.042" gradientUnits="objectBoundingBox">
      <stop offset="0.142" stop-color="#aa1829"/>
      <stop offset="0.159" stop-color="#aa1829" stop-opacity="0.933"/>
      <stop offset="0.237" stop-color="#aa1829" stop-opacity="0.651"/>
      <stop offset="0.316" stop-color="#aa1829" stop-opacity="0.416"/>
      <stop offset="0.392" stop-color="#aa1829" stop-opacity="0.235"/>
      <stop offset="0.467" stop-color="#aa1829" stop-opacity="0.106"/>
      <stop offset="0.538" stop-color="#aa1829" stop-opacity="0.027"/>
      <stop offset="0.602" stop-color="#aa1829" stop-opacity="0"/>
    </linearGradient>
    <linearGradient id="linear-gradient-4" x1="0.23" y1="1.492" x2="0.888" y2="-0.995" gradientUnits="objectBoundingBox">
      <stop offset="0.142" stop-color="#aa1829"/>
      <stop offset="0.153" stop-color="#aa1829" stop-opacity="0.933"/>
      <stop offset="0.202" stop-color="#aa1829" stop-opacity="0.651"/>
      <stop offset="0.252" stop-color="#aa1829" stop-opacity="0.416"/>
      <stop offset="0.3" stop-color="#aa1829" stop-opacity="0.235"/>
      <stop offset="0.347" stop-color="#aa1829" stop-opacity="0.106"/>
      <stop offset="0.392" stop-color="#aa1829" stop-opacity="0.027"/>
      <stop offset="0.432" stop-color="#aa1829" stop-opacity="0"/>
    </linearGradient>
    <linearGradient id="linear-gradient-5" x1="0.489" y1="0.263" x2="0.531" y2="1.114" gradientUnits="objectBoundingBox">
      <stop offset="0.142" stop-color="#aa1829"/>
      <stop offset="0.152" stop-color="#aa1829" stop-opacity="0.933"/>
      <stop offset="0.198" stop-color="#aa1829" stop-opacity="0.651"/>
      <stop offset="0.243" stop-color="#aa1829" stop-opacity="0.416"/>
      <stop offset="0.288" stop-color="#aa1829" stop-opacity="0.235"/>
      <stop offset="0.331" stop-color="#aa1829" stop-opacity="0.106"/>
      <stop offset="0.373" stop-color="#aa1829" stop-opacity="0.027"/>
      <stop offset="0.41" stop-color="#aa1829" stop-opacity="0"/>
    </linearGradient>
    <linearGradient id="linear-gradient-6" x1="-0.017" y1="0.558" x2="2.109" y2="0.265" xlink:href="#linear-gradient-4"/>
    <linearGradient id="linear-gradient-7" x1="0.587" y1="1.26" x2="0.466" y2="-0.017" gradientUnits="objectBoundingBox">
      <stop offset="0.257" stop-color="#aa1829"/>
      <stop offset="0.27" stop-color="#aa1829" stop-opacity="0.933"/>
      <stop offset="0.329" stop-color="#aa1829" stop-opacity="0.651"/>
      <stop offset="0.387" stop-color="#aa1829" stop-opacity="0.416"/>
      <stop offset="0.444" stop-color="#aa1829" stop-opacity="0.235"/>
      <stop offset="0.5" stop-color="#aa1829" stop-opacity="0.106"/>
      <stop offset="0.553" stop-color="#aa1829" stop-opacity="0.027"/>
      <stop offset="0.601" stop-color="#aa1829" stop-opacity="0"/>
    </linearGradient>
    <linearGradient id="linear-gradient-8" x1="0.568" y1="0.994" x2="0.42" y2="-0.651" gradientUnits="objectBoundingBox">
      <stop offset="0.142" stop-color="#ffd511"/>
      <stop offset="0.16" stop-color="#ffd511" stop-opacity="0.847"/>
      <stop offset="0.189" stop-color="#ffd513" stop-opacity="0.627"/>
      <stop offset="0.219" stop-color="#ffd514" stop-opacity="0.435"/>
      <stop offset="0.247" stop-color="#ffd515" stop-opacity="0.278"/>
      <stop offset="0.276" stop-color="#ffd516" stop-opacity="0.157"/>
      <stop offset="0.303" stop-color="#ffd516" stop-opacity="0.071"/>
      <stop offset="0.329" stop-color="#ffd516" stop-opacity="0.02"/>
      <stop offset="0.353" stop-color="#ffd517" stop-opacity="0"/>
    </linearGradient>
    <linearGradient id="linear-gradient-9" x1="0.658" y1="1.353" x2="0.454" y2="0.212" gradientUnits="objectBoundingBox">
      <stop offset="0.358" stop-color="#aa1829"/>
      <stop offset="0.367" stop-color="#aa1829" stop-opacity="0.933"/>
      <stop offset="0.408" stop-color="#aa1829" stop-opacity="0.651"/>
      <stop offset="0.449" stop-color="#aa1829" stop-opacity="0.416"/>
      <stop offset="0.489" stop-color="#aa1829" stop-opacity="0.235"/>
      <stop offset="0.528" stop-color="#aa1829" stop-opacity="0.106"/>
      <stop offset="0.565" stop-color="#aa1829" stop-opacity="0.027"/>
      <stop offset="0.599" stop-color="#aa1829" stop-opacity="0"/>
    </linearGradient>
    <linearGradient id="linear-gradient-10" x1="-0.029" y1="0.894" x2="1.352" y2="-0.179" gradientUnits="objectBoundingBox">
      <stop offset="0.058" stop-color="#aa1829"/>
      <stop offset="0.072" stop-color="#aa1829" stop-opacity="0.933"/>
      <stop offset="0.136" stop-color="#aa1829" stop-opacity="0.651"/>
      <stop offset="0.2" stop-color="#aa1829" stop-opacity="0.416"/>
      <stop offset="0.262" stop-color="#aa1829" stop-opacity="0.235"/>
      <stop offset="0.322" stop-color="#aa1829" stop-opacity="0.106"/>
      <stop offset="0.38" stop-color="#aa1829" stop-opacity="0.027"/>
      <stop offset="0.432" stop-color="#aa1829" stop-opacity="0"/>
    </linearGradient>
    <linearGradient id="linear-gradient-11" x1="0.577" y1="1.055" x2="0.503" y2="0.437" gradientUnits="objectBoundingBox">
      <stop offset="0.286" stop-color="#aa1829"/>
      <stop offset="0.296" stop-color="#aa1829" stop-opacity="0.933"/>
      <stop offset="0.342" stop-color="#aa1829" stop-opacity="0.651"/>
      <stop offset="0.388" stop-color="#aa1829" stop-opacity="0.416"/>
      <stop offset="0.432" stop-color="#aa1829" stop-opacity="0.235"/>
      <stop offset="0.476" stop-color="#aa1829" stop-opacity="0.106"/>
      <stop offset="0.517" stop-color="#aa1829" stop-opacity="0.027"/>
      <stop offset="0.555" stop-color="#aa1829" stop-opacity="0"/>
    </linearGradient>
    <linearGradient id="linear-gradient-12" x1="0.771" y1="0.935" x2="0.242" y2="0.086" gradientUnits="objectBoundingBox">
      <stop offset="0.349" stop-color="#faba0d"/>
      <stop offset="0.386" stop-color="#faba0d" stop-opacity="0.863"/>
      <stop offset="0.454" stop-color="#faba0d" stop-opacity="0.639"/>
      <stop offset="0.523" stop-color="#faba0d" stop-opacity="0.443"/>
      <stop offset="0.59" stop-color="#faba0d" stop-opacity="0.282"/>
      <stop offset="0.656" stop-color="#faba0d" stop-opacity="0.161"/>
      <stop offset="0.72" stop-color="#faba0d" stop-opacity="0.071"/>
      <stop offset="0.781" stop-color="#faba0d" stop-opacity="0.02"/>
      <stop offset="0.836" stop-color="#faba0d" stop-opacity="0"/>
    </linearGradient>
    <linearGradient id="linear-gradient-14" x1="0.47" y1="-1.279" x2="0.511" y2="1.171" gradientUnits="objectBoundingBox">
      <stop offset="0.14" stop-color="#aa1829" stop-opacity="0"/>
      <stop offset="0.62" stop-color="#aa1829" stop-opacity="0"/>
      <stop offset="0.649" stop-color="#aa1829" stop-opacity="0.027"/>
      <stop offset="0.681" stop-color="#aa1829" stop-opacity="0.106"/>
      <stop offset="0.715" stop-color="#aa1829" stop-opacity="0.235"/>
      <stop offset="0.749" stop-color="#aa1829" stop-opacity="0.416"/>
      <stop offset="0.784" stop-color="#aa1829" stop-opacity="0.651"/>
      <stop offset="0.82" stop-color="#aa1829" stop-opacity="0.933"/>
      <stop offset="0.827" stop-color="#aa1829"/>
    </linearGradient>
    <linearGradient id="linear-gradient-15" x1="-0.14" y1="0.022" x2="1.143" y2="0.981" gradientUnits="objectBoundingBox">
      <stop offset="0.14" stop-color="#aa1829" stop-opacity="0"/>
      <stop offset="0.445" stop-color="#aa1829" stop-opacity="0"/>
      <stop offset="0.483" stop-color="#aa1829" stop-opacity="0.027"/>
      <stop offset="0.524" stop-color="#aa1829" stop-opacity="0.106"/>
      <stop offset="0.568" stop-color="#aa1829" stop-opacity="0.235"/>
      <stop offset="0.612" stop-color="#aa1829" stop-opacity="0.416"/>
      <stop offset="0.658" stop-color="#aa1829" stop-opacity="0.651"/>
      <stop offset="0.704" stop-color="#aa1829" stop-opacity="0.933"/>
      <stop offset="0.714" stop-color="#aa1829"/>
    </linearGradient>
    <linearGradient id="linear-gradient-16" x1="-0.086" y1="-0.188" x2="1.124" y2="1.232" xlink:href="#linear-gradient-15"/>
  </defs>
  <g id="Grupo_11" data-name="Grupo 11" transform="translate(-422.146 -42.953)">
    <path id="Trazado_1" data-name="Trazado 1" d="M546.854,59.5a4.376,4.376,0,0,0-.824-1.643,6.974,6.974,0,0,0-.15-1.206,5.677,5.677,0,0,0-.411-1.218,6.152,6.152,0,0,0,1.444-1.033,6.054,6.054,0,0,0-7.308-9.544,6.181,6.181,0,0,0-1.979-.539,5.754,5.754,0,0,0-2.092-.53,5.475,5.475,0,0,0-2.457-.573,6.24,6.24,0,0,0-1.744.256q-.284-.023-.563-.023a6.129,6.129,0,0,0-4.686,2.084c-.07-.021-.137-.047-.208-.066a6.354,6.354,0,0,0-1.653-.22c-.1,0-.2,0-.3.007s-.191-.007-.287-.007a6.093,6.093,0,0,0-1.9.3,6.077,6.077,0,0,0-1.393-1.265,6.446,6.446,0,0,0-3.461-1.02q-.152,0-.3.008t-.287-.007a6.054,6.054,0,0,0-2.818.685,5.882,5.882,0,0,0-1.831,1.486,11.194,11.194,0,0,0-3.936-.733c-.2-.012-.45-.024-.727-.024a11.23,11.23,0,0,0-4.127.752,10.52,10.52,0,0,0-1.142.529,8.019,8.019,0,0,0-1.6-1,8.39,8.39,0,0,0-3.28-.791c-.114,0-.227-.007-.342-.007a9.654,9.654,0,0,0-2.936.473l-2.972.951-4.448-1.118a6.911,6.911,0,0,0-1.68-.213,6.091,6.091,0,0,0-2.6.576l-3.3-1.008a6.24,6.24,0,0,0-4.344.25,5.653,5.653,0,0,0-.825.445q-.161.081-.316.171l-.113-.063a6.15,6.15,0,0,0-2.925-.738h-.062c-.187-.016-.374-.025-.56-.025a6.347,6.347,0,0,0-1.5.18,6.2,6.2,0,0,0-3.22,1.908,6.2,6.2,0,0,0-1.911-.3h-.062c-.186-.017-.373-.025-.559-.025a6.3,6.3,0,0,0-.778.048q-.229-.115-.465-.22A12.123,12.123,0,0,0,456,44.368a10.4,10.4,0,0,0-1.8.155,10.236,10.236,0,0,0-3.34,1.212q-.2.1-.38.2a6,6,0,0,0-3.108-2.61,6.1,6.1,0,0,0-2.094-.369,6.333,6.333,0,0,0-2.4.477,6.184,6.184,0,0,0-3,2.526,6.1,6.1,0,0,0-1.5-.187c-.164,0-.329.007-.492.02a6.378,6.378,0,0,0-2.1-.358,6.088,6.088,0,0,0-2.314.454q-.21.086-.414.188c-.058.022-.115.043-.172.067a6.017,6.017,0,0,0-3.156,3.025c-.162-.014-.332-.021-.51-.021a5.917,5.917,0,0,0-2.648.619,6.3,6.3,0,0,0-3.589,3.542,10.123,10.123,0,0,0-.064,7.809,8.094,8.094,0,0,0,5.186,4.336,9.471,9.471,0,0,0,3.161.59,7.448,7.448,0,0,0,.862-.05,7.781,7.781,0,0,0,2.518-.733,7.2,7.2,0,0,0,1.6-.854,7.828,7.828,0,0,0,.816-.664,9.121,9.121,0,0,0,2.8,1.7,9.323,9.323,0,0,0,3.334.6c.151,0,.3,0,.442-.01a10.831,10.831,0,0,0,3.63-.812,11.256,11.256,0,0,0,2.108-1.126,10.958,10.958,0,0,0,3.994,1.7,11.088,11.088,0,0,0,2.324.253,10.014,10.014,0,0,0,1.814-.165,9.74,9.74,0,0,0,3.118-1.149q.341-.168.646-.348.331.227.682.425a9.307,9.307,0,0,0,3.2,1.089c.152.023.306.043.442.057.294.031.6.048.935.052.245.018.493.026.74.026a11.4,11.4,0,0,0,5.168-1.27l3.316,1.013a6.574,6.574,0,0,0,1.924.294,5.931,5.931,0,0,0,3.228-.936,6.354,6.354,0,0,0,2.155.994,6.436,6.436,0,0,0,1.569.2,9.329,9.329,0,0,0,3.533-1,5.879,5.879,0,0,0,1.516-1.193,5.929,5.929,0,0,0,2.189,1.763,6.087,6.087,0,0,0,2.591.575,6.386,6.386,0,0,0,1.954-.311c.117-.038.234-.079.35-.124.081-.022.16-.046.239-.071a6.317,6.317,0,0,0,2.291-1.3,5.747,5.747,0,0,0,.689.041,6.265,6.265,0,0,0,1.339-.147,10.462,10.462,0,0,0,1.517.742,11.205,11.205,0,0,0,3.971.75c.2.012.458.025.739.025a11.24,11.24,0,0,0,4.129-.753,10.338,10.338,0,0,0,1.925-1c.146.01.293.015.439.015.1,0,.2,0,.307-.007s.191.006.286.006a6.081,6.081,0,0,0,1.9-.3,5.934,5.934,0,0,0,1.365,1.247,6.252,6.252,0,0,0,1.831.817,6.435,6.435,0,0,0,1.683.227q.139,0,.277-.006c.094,0,.187.006.279.006a6.1,6.1,0,0,0,2.841-.7,5.847,5.847,0,0,0,1.255-.9,4.333,4.333,0,0,0,2.836,1.527,6.436,6.436,0,0,0,7.574.168,5.761,5.761,0,0,0,1.369.165,5.834,5.834,0,0,0,1.844-.3c.134.012.27.019.407.019a4.435,4.435,0,0,0,.79-.072l2.72-.5a4.383,4.383,0,0,0,3.455-5.413Z" transform="translate(0 0)" fill="#00ae42"/>
    <g id="Grupo_10" data-name="Grupo 10" transform="translate(426.531 47.337)">
      <g id="Grupo_9" data-name="Grupo 9" transform="translate(0 0)">
        <g id="Grupo_8" data-name="Grupo 8">
          <g id="Grupo_7" data-name="Grupo 7">
            <path id="Trazado_2" data-name="Trazado 2" d="M748.963,59.783h.1l.108.007a.536.536,0,0,1,.165.031.217.217,0,0,1,.137.134.8.8,0,0,1,.03.226,1.27,1.27,0,0,0,.028.254H750l-.018-.052a.15.15,0,0,1-.011-.054.431.431,0,0,1,0-.054v-.163a.49.49,0,0,0-.165-.412.633.633,0,0,0-.263-.106.6.6,0,0,0,.323-.124.4.4,0,0,0,.13-.336.462.462,0,0,0-.25-.439.919.919,0,0,0-.365-.1c-.028,0-.154,0-.384,0l-.517,0v1.84h.486Zm.456-.4a.464.464,0,0,1-.265.065h-.191v-.532h.117a.828.828,0,0,1,.284.037.212.212,0,0,1,.148.208.254.254,0,0,1-.093.221m.977-1.048a1.612,1.612,0,0,0-1.185-.489,1.651,1.651,0,0,0-1.15.452,1.675,1.675,0,0,0-.039,2.39,1.707,1.707,0,0,0,2.364.013,1.659,1.659,0,0,0,.011-2.366m-.206.21a1.368,1.368,0,1,1-.979-.415,1.314,1.314,0,0,1,.979.415" transform="translate(-633.053 -56.791)" fill="#fff"/>
            <path id="Trazado_3" data-name="Trazado 3" d="M473.866,61.222l-2.078-5.1a1.761,1.761,0,0,0-1.007-1.067,1.96,1.96,0,0,0-2.337.948,1.745,1.745,0,0,0,.023,1.462l2.061,5.055a1.989,1.989,0,0,1,.167.8,1.577,1.577,0,0,1-.166.668,1.878,1.878,0,0,1-.439.561,2.5,2.5,0,0,1-1.436.586,1.745,1.745,0,0,1-.694-.1,1.613,1.613,0,0,1-.583-.367,1.991,1.991,0,0,1-.442-.69l-2.061-5.055a1.743,1.743,0,0,0-1.006-1.061,1.837,1.837,0,0,0-1.34.052,1.818,1.818,0,0,0-.994.9,1.762,1.762,0,0,0,.027,1.467l2.078,5.1a5.574,5.574,0,0,0,1.208,1.867,4.848,4.848,0,0,0,1.7,1.111,4.968,4.968,0,0,0,1.774.315c.084,0,.168,0,.252-.006a6.842,6.842,0,0,0,4.063-1.657,5.145,5.145,0,0,0,1.23-1.635,4.807,4.807,0,0,0,.445-1.986A5.586,5.586,0,0,0,473.866,61.222Z" transform="translate(-451.437 -54.953)" fill="#007934"/>
            <path id="Trazado_4" data-name="Trazado 4" d="M569.388,58.647a1.81,1.81,0,0,0-1.1-.821l-3.89-1.188a1.853,1.853,0,0,0-1.307.077,1.674,1.674,0,0,0-.929,1.112l-2.635,8.627a1.672,1.672,0,0,0,.149,1.442,1.841,1.841,0,0,0,1.042.795l3.984,1.217a2.218,2.218,0,0,0,.644.1,1.729,1.729,0,0,0,1.447-2.532,1.829,1.829,0,0,0-1.1-.809l-2.272-.694.406-1.327,1.957.6a1.843,1.843,0,0,0,1.367-.055,1.789,1.789,0,0,0,.724-2.373,1.828,1.828,0,0,0-1.1-.809l-1.958-.6.31-1.013,2.178.665a1.836,1.836,0,0,0,1.366-.055,1.779,1.779,0,0,0,.725-2.361Z" transform="translate(-513.663 -55.969)" fill="#007934"/>
            <path id="Trazado_5" data-name="Trazado 5" d="M567.96,59.473a1.808,1.808,0,0,0-1.1-.821l-3.89-1.188a1.853,1.853,0,0,0-1.307.077,1.675,1.675,0,0,0-.929,1.112L558.1,67.28a1.673,1.673,0,0,0,.149,1.442,1.839,1.839,0,0,0,1.042.795l3.984,1.217a2.2,2.2,0,0,0,.644.1,1.729,1.729,0,0,0,1.447-2.532,1.831,1.831,0,0,0-1.1-.809l-2.271-.693.405-1.327,1.957.6a1.843,1.843,0,0,0,1.367-.055,1.789,1.789,0,0,0,.724-2.373,1.827,1.827,0,0,0-1.1-.809l-1.958-.6.309-1.013,2.178.665a1.834,1.834,0,0,0,1.366-.055,1.78,1.78,0,0,0,.725-2.361Z" transform="translate(-512.757 -56.493)" fill="#fff"/>
            <path id="Trazado_6" data-name="Trazado 6" d="M540.313,64.238l-1.3-5.348a1.76,1.76,0,0,0-.837-1.2,1.959,1.959,0,0,0-2.452.591,1.744,1.744,0,0,0-.194,1.449l1.289,5.3a2,2,0,0,1,.046.818,1.58,1.58,0,0,1-.263.636,1.873,1.873,0,0,1-.517.49,2.5,2.5,0,0,1-1.507.366,1.752,1.752,0,0,1-.672-.2,1.608,1.608,0,0,1-.522-.45,1.987,1.987,0,0,1-.335-.747l-1.289-5.3a1.744,1.744,0,0,0-.837-1.2,1.84,1.84,0,0,0-1.333-.147,1.816,1.816,0,0,0-1.117.747,1.763,1.763,0,0,0-.191,1.455l1.3,5.348a5.576,5.576,0,0,0,.918,2.026,4.848,4.848,0,0,0,1.513,1.35,4.966,4.966,0,0,0,1.707.575q.124.019.251.032a6.838,6.838,0,0,0,4.263-1.036,5.131,5.131,0,0,0,1.458-1.435,4.8,4.8,0,0,0,.735-1.9A5.578,5.578,0,0,0,540.313,64.238Z" transform="translate(-493.848 -56.552)" fill="#007934"/>
            <path id="Trazado_7" data-name="Trazado 7" d="M538.712,64.173l-1.3-5.348a1.762,1.762,0,0,0-.837-1.2,1.96,1.96,0,0,0-2.452.591,1.744,1.744,0,0,0-.194,1.449l1.289,5.3a1.991,1.991,0,0,1,.046.819,1.568,1.568,0,0,1-.263.636,1.866,1.866,0,0,1-.517.49,2.5,2.5,0,0,1-1.508.366,1.748,1.748,0,0,1-.672-.2,1.61,1.61,0,0,1-.522-.449,1.988,1.988,0,0,1-.335-.748l-1.289-5.3a1.744,1.744,0,0,0-.837-1.2,1.837,1.837,0,0,0-1.332-.147,1.816,1.816,0,0,0-1.117.747,1.761,1.761,0,0,0-.191,1.455l1.3,5.348a5.583,5.583,0,0,0,.918,2.026,4.842,4.842,0,0,0,1.513,1.35,4.962,4.962,0,0,0,1.707.575q.124.019.251.032a6.841,6.841,0,0,0,4.264-1.036,5.141,5.141,0,0,0,1.458-1.435,4.8,4.8,0,0,0,.735-1.9A5.581,5.581,0,0,0,538.712,64.173Z" transform="translate(-492.832 -56.511)" fill="#fff"/>
            <path id="Trazado_8" data-name="Trazado 8" d="M508.528,64.9l-2.975-.639a1.663,1.663,0,0,0-1.379.185,1.686,1.686,0,0,0-.34,1.98,1.807,1.807,0,0,0,1.168.726l.921.2a1.559,1.559,0,0,1-.6.52,2.22,2.22,0,0,1-1.492.129,2.416,2.416,0,0,1-1.041-.467,2.219,2.219,0,0,1-.61-.782,2.819,2.819,0,0,1-.25-1.011,4.076,4.076,0,0,1,.082-1.115,3.757,3.757,0,0,1,.427-1.121,2.689,2.689,0,0,1,.692-.789,2.346,2.346,0,0,1,.9-.417,2.814,2.814,0,0,1,1.966.359,4.316,4.316,0,0,1,.621.518c.194.2.376.385.544.551a1.781,1.781,0,0,0,2.1.266,1.52,1.52,0,0,0,.689-1.012,2.118,2.118,0,0,0-.2-1.474,3.726,3.726,0,0,0-.97-1.14,6.557,6.557,0,0,0-1.415-.848,7.3,7.3,0,0,0-4.157-.6,5.84,5.84,0,0,0-2.208.867,6.09,6.09,0,0,0-1.688,1.685,6.681,6.681,0,0,0-.989,2.364,7.22,7.22,0,0,0-.114,2.445,5.748,5.748,0,0,0,.76,2.231,5.816,5.816,0,0,0,1.627,1.747,6.565,6.565,0,0,0,2.463,1.043,6.663,6.663,0,0,0,1.4.155,5.572,5.572,0,0,0,1.015-.091,5.321,5.321,0,0,0,2.052-.833,5.63,5.63,0,0,0,1.525-1.563,6.281,6.281,0,0,0,.879-2.139,1.648,1.648,0,0,0-.131-1.286A1.82,1.82,0,0,0,508.528,64.9Z" transform="translate(-474.767 -57.411)" fill="#007934"/>
            <path id="Trazado_9" data-name="Trazado 9" d="M683.27,58.609a1.939,1.939,0,0,0-2.441-.66,1.788,1.788,0,0,0-.869,1.2l-1.093,4.043-2.329-5.246c-.14-.332-.264-.61-.369-.828a4.048,4.048,0,0,0-.34-.593,1.7,1.7,0,0,0-.444-.438,1.95,1.95,0,0,0-.559-.241,1.816,1.816,0,0,0-1.342.122,1.79,1.79,0,0,0-.869,1.2l-2.323,8.594a1.711,1.711,0,0,0,1.246,2.253,1.814,1.814,0,0,0,1.343-.122,1.79,1.79,0,0,0,.868-1.2l1.093-4.043,2.333,5.254q.213.479.364.8a3.753,3.753,0,0,0,.342.608,1.692,1.692,0,0,0,.443.438,1.919,1.919,0,0,0,.56.243,2.046,2.046,0,0,0,.536.074,1.74,1.74,0,0,0,.808-.2,1.794,1.794,0,0,0,.868-1.2l2.324-8.594A1.793,1.793,0,0,0,683.27,58.609Z" transform="translate(-583.969 -55.47)" fill="#007934"/>
            <path id="Trazado_10" data-name="Trazado 10" d="M681.748,58.61a1.939,1.939,0,0,0-2.441-.66,1.788,1.788,0,0,0-.869,1.2l-1.093,4.043-2.329-5.246c-.14-.331-.264-.61-.369-.828a4.055,4.055,0,0,0-.341-.593,1.709,1.709,0,0,0-.444-.438,1.957,1.957,0,0,0-.559-.241,1.816,1.816,0,0,0-1.343.122,1.79,1.79,0,0,0-.87,1.2l-2.323,8.594a1.712,1.712,0,0,0,1.246,2.253,1.818,1.818,0,0,0,1.343-.122,1.794,1.794,0,0,0,.868-1.2l1.093-4.043,2.332,5.254q.213.479.364.8a3.791,3.791,0,0,0,.342.608,1.691,1.691,0,0,0,.443.438,1.92,1.92,0,0,0,.56.243,2.061,2.061,0,0,0,.536.074,1.734,1.734,0,0,0,.808-.2,1.793,1.793,0,0,0,.868-1.2L681.9,60.08A1.792,1.792,0,0,0,681.748,58.61Z" transform="translate(-583.003 -55.47)" fill="#fff"/>
            <path id="Trazado_11" data-name="Trazado 11" d="M650.939,63.444a5.547,5.547,0,0,0-3.239-3.279,7.327,7.327,0,0,0-5.046,0,5.546,5.546,0,0,0-3.239,3.279,7.738,7.738,0,0,0,0,5.148,5.548,5.548,0,0,0,3.239,3.279,7.327,7.327,0,0,0,5.046,0,5.546,5.546,0,0,0,3.239-3.279,7.745,7.745,0,0,0,0-5.148Zm-7.6.518a2.119,2.119,0,0,1,.737-.624,2.7,2.7,0,0,1,2.209,0,2.125,2.125,0,0,1,.735.624,2.8,2.8,0,0,1,.435.928,4.381,4.381,0,0,1,0,2.255,2.806,2.806,0,0,1-.435.928,2.121,2.121,0,0,1-.735.624,2.705,2.705,0,0,1-2.21,0,2.121,2.121,0,0,1-.736-.624,2.788,2.788,0,0,1-.435-.928,4.372,4.372,0,0,1,0-2.255A2.8,2.8,0,0,1,643.336,63.962Z" transform="translate(-564.148 -57.977)" fill="#007934"/>
            <path id="Trazado_12" data-name="Trazado 12" d="M649.338,63.379A5.547,5.547,0,0,0,646.1,60.1a7.327,7.327,0,0,0-5.046,0,5.548,5.548,0,0,0-3.239,3.279,7.738,7.738,0,0,0,0,5.148,5.548,5.548,0,0,0,3.239,3.279,7.328,7.328,0,0,0,5.046,0,5.546,5.546,0,0,0,3.239-3.279,7.737,7.737,0,0,0,0-5.148Zm-7.6.518a2.11,2.11,0,0,1,.736-.624,2.7,2.7,0,0,1,2.209,0,2.12,2.12,0,0,1,.735.624,2.789,2.789,0,0,1,.435.928,4.371,4.371,0,0,1,0,2.255,2.8,2.8,0,0,1-.435.928,2.118,2.118,0,0,1-.735.624,2.705,2.705,0,0,1-2.21,0,2.117,2.117,0,0,1-.735-.624,2.789,2.789,0,0,1-.435-.928,4.37,4.37,0,0,1,0-2.255A2.8,2.8,0,0,1,641.735,63.9Z" transform="translate(-563.132 -57.935)" fill="#fff"/>
            <path id="Trazado_13" data-name="Trazado 13" d="M621.4,67.544a1.667,1.667,0,0,0-.43-.7,3.039,3.039,0,0,0-.662-.465l-2.274-1.252a3.543,3.543,0,0,0,1.094-1.454,3.746,3.746,0,0,0,.044-2.605,4.268,4.268,0,0,0-.806-1.489,3.763,3.763,0,0,0-1.251-.963,4.036,4.036,0,0,0-1.576-.372,5.163,5.163,0,0,0-1.77.262l-3.046.974a1.845,1.845,0,0,0-1.031.8,1.658,1.658,0,0,0-.133,1.436l2.73,8.535a1.807,1.807,0,0,0,.924,1.163,1.731,1.731,0,0,0,.738.164,2.006,2.006,0,0,0,.612-.1,1.791,1.791,0,0,0,1.062-.84,1.826,1.826,0,0,0,.073-1.489l-.622-1.947,3.3,2.192a2.862,2.862,0,0,0,.737.365,1.242,1.242,0,0,0,.365.052,2.3,2.3,0,0,0,.7-.125,1.815,1.815,0,0,0,.754-.44,1.85,1.85,0,0,0,.405-.591,1.637,1.637,0,0,0,.134-.621A1.583,1.583,0,0,0,621.4,67.544Zm-6-5.769a.7.7,0,0,1,.4.477.8.8,0,0,1-.6,1.083l-1.231.394-.5-1.572,1.232-.394A.965.965,0,0,1,615.394,61.775Z" transform="translate(-545.414 -57.039)" fill="#007934"/>
            <path id="Trazado_14" data-name="Trazado 14" d="M619.766,68.085a1.659,1.659,0,0,0-.429-.7,3.058,3.058,0,0,0-.662-.465L616.4,65.667a3.542,3.542,0,0,0,1.094-1.454,3.747,3.747,0,0,0,.044-2.605,4.267,4.267,0,0,0-.806-1.489,3.763,3.763,0,0,0-1.251-.963,4.038,4.038,0,0,0-1.576-.372,5.157,5.157,0,0,0-1.77.262l-3.046.974a1.842,1.842,0,0,0-1.03.8,1.656,1.656,0,0,0-.133,1.436l2.73,8.535a1.8,1.8,0,0,0,.924,1.162,1.725,1.725,0,0,0,.737.165,2,2,0,0,0,.612-.1,1.79,1.79,0,0,0,1.062-.84,1.826,1.826,0,0,0,.073-1.489l-.622-1.947,3.3,2.192a2.862,2.862,0,0,0,.737.365,1.242,1.242,0,0,0,.365.052,2.3,2.3,0,0,0,.7-.125,1.82,1.82,0,0,0,.754-.44,1.853,1.853,0,0,0,.4-.591,1.644,1.644,0,0,0,.135-.621A1.57,1.57,0,0,0,619.766,68.085Zm-6-5.769a.7.7,0,0,1,.4.477.8.8,0,0,1-.6,1.083l-1.231.394-.5-1.572,1.231-.394A.965.965,0,0,1,613.762,62.316Z" transform="translate(-544.379 -57.383)" fill="#fff"/>
            <path id="Trazado_15" data-name="Trazado 15" d="M597.1,60.715a1.9,1.9,0,0,0-1.189-.765l-5.471-1.375a1.911,1.911,0,0,0-1.411.111,1.779,1.779,0,0,0-.605,2.394,1.874,1.874,0,0,0,1.191.777l1,.251-1.794,7.137a1.716,1.716,0,0,0,1.284,2.238,2.054,2.054,0,0,0,.5.065,1.735,1.735,0,0,0,.84-.214,1.8,1.8,0,0,0,.847-1.216l1.794-7.138,1,.251a2.508,2.508,0,0,0,.6.08,1.72,1.72,0,0,0,1.41-2.6Z" transform="translate(-531.911 -57.201)" fill="#007934"/>
            <path id="Trazado_16" data-name="Trazado 16" d="M507.112,65.663l-2.975-.639a1.667,1.667,0,0,0-1.379.185,1.686,1.686,0,0,0-.34,1.98,1.807,1.807,0,0,0,1.168.727l.92.2a1.56,1.56,0,0,1-.6.52,2.223,2.223,0,0,1-1.492.129,2.416,2.416,0,0,1-1.041-.467,2.216,2.216,0,0,1-.61-.782,2.826,2.826,0,0,1-.25-1.01,4.061,4.061,0,0,1,.082-1.115,3.737,3.737,0,0,1,.427-1.12,2.684,2.684,0,0,1,.692-.789,2.34,2.34,0,0,1,.9-.417,2.816,2.816,0,0,1,1.966.359,4.3,4.3,0,0,1,.621.518c.194.2.376.385.544.551a1.782,1.782,0,0,0,2.1.267,1.521,1.521,0,0,0,.689-1.013,2.115,2.115,0,0,0-.2-1.474,3.723,3.723,0,0,0-.97-1.141,6.544,6.544,0,0,0-1.415-.847,7.3,7.3,0,0,0-4.157-.605,5.833,5.833,0,0,0-2.208.867,6.1,6.1,0,0,0-1.688,1.685,6.694,6.694,0,0,0-.989,2.364,7.232,7.232,0,0,0-.114,2.445,5.751,5.751,0,0,0,.76,2.231,5.82,5.82,0,0,0,1.627,1.747,6.573,6.573,0,0,0,2.463,1.043,6.689,6.689,0,0,0,1.4.155,5.575,5.575,0,0,0,1.015-.091,5.33,5.33,0,0,0,2.052-.833,5.644,5.644,0,0,0,1.525-1.563,6.286,6.286,0,0,0,.879-2.14,1.648,1.648,0,0,0-.131-1.285A1.82,1.82,0,0,0,507.112,65.663Z" transform="translate(-473.869 -57.894)" fill="#fff"/>
            <path id="Trazado_17" data-name="Trazado 17" d="M595.5,61.394a1.9,1.9,0,0,0-1.189-.765l-5.472-1.375a1.908,1.908,0,0,0-1.41.112,1.78,1.78,0,0,0-.606,2.393,1.876,1.876,0,0,0,1.191.778l1,.251-1.794,7.137a1.716,1.716,0,0,0,1.284,2.239,2.07,2.07,0,0,0,.5.064,1.735,1.735,0,0,0,.84-.214,1.8,1.8,0,0,0,.847-1.216l1.794-7.137,1,.251a2.486,2.486,0,0,0,.6.08,1.72,1.72,0,0,0,1.41-2.6Z" transform="translate(-530.896 -57.632)" fill="#fff"/>
            <path id="Trazado_18" data-name="Trazado 18" d="M473.293,62.827l-2.078-5.1a1.76,1.76,0,0,0-1.006-1.067,1.96,1.96,0,0,0-2.337.948,1.744,1.744,0,0,0,.023,1.461l2.061,5.055a1.994,1.994,0,0,1,.167.8,1.577,1.577,0,0,1-.165.668,1.878,1.878,0,0,1-.439.561,2.5,2.5,0,0,1-1.436.586,1.745,1.745,0,0,1-.694-.1,1.613,1.613,0,0,1-.583-.367,1.983,1.983,0,0,1-.442-.69L464.3,60.537a1.744,1.744,0,0,0-1.006-1.061,1.838,1.838,0,0,0-1.34.052,1.817,1.817,0,0,0-.994.9,1.762,1.762,0,0,0,.027,1.467l2.078,5.1a5.574,5.574,0,0,0,1.208,1.868,4.844,4.844,0,0,0,1.7,1.111,4.966,4.966,0,0,0,1.774.315c.084,0,.168,0,.252-.006a6.842,6.842,0,0,0,4.063-1.657,5.144,5.144,0,0,0,1.23-1.635,4.8,4.8,0,0,0,.445-1.986A5.578,5.578,0,0,0,473.293,62.827Z" transform="translate(-451.073 -55.972)" fill="#fff"/>
            <path id="Trazado_19" data-name="Trazado 19" d="M446.134,62.721a1.819,1.819,0,0,0-1.032-.861,1.838,1.838,0,0,0-1.341.005,1.745,1.745,0,0,0-.959,1.1l-1.894,5.284a3.316,3.316,0,0,1-.576,1.29.671.671,0,0,1-.624.09.772.772,0,0,1-.492-1.117s1.188-2.481-.817-2.977a1.671,1.671,0,0,0-2.165,1.158s-2.086,4.875,2.41,6.239l0-.008c.045.018.09.037.134.053a5.161,5.161,0,0,0,1.707.341h0a2.977,2.977,0,0,0,.347-.02,3.235,3.235,0,0,0,1.515-.553,3.527,3.527,0,0,0,1.011-1.114,7.756,7.756,0,0,0,.6-1.278l2.212-6.169A1.762,1.762,0,0,0,446.134,62.721Z" transform="translate(-435.165 -59.258)" fill="#007934"/>
            <path id="Trazado_20" data-name="Trazado 20" d="M444.533,63.418a1.816,1.816,0,0,0-1.032-.861,1.837,1.837,0,0,0-1.34.005,1.742,1.742,0,0,0-.959,1.1l-1.894,5.284a3.313,3.313,0,0,1-.577,1.29.671.671,0,0,1-.623.09.772.772,0,0,1-.492-1.117s1.187-2.481-.818-2.976a1.671,1.671,0,0,0-2.165,1.158s-2.086,4.875,2.41,6.239l0-.008c.045.018.089.037.134.053a5.149,5.149,0,0,0,1.707.341h0a3.062,3.062,0,0,0,.348-.019,3.236,3.236,0,0,0,1.515-.554,3.527,3.527,0,0,0,1.011-1.114,7.829,7.829,0,0,0,.6-1.278l2.212-6.17A1.76,1.76,0,0,0,444.533,63.418Z" transform="translate(-434.149 -59.701)" fill="#fff"/>
            <path id="Trazado_21" data-name="Trazado 21" d="M722.952,80.1c0,.669-.233,1.756-.857,1.756s-1.4-1.087-1.4-1.756a1.132,1.132,0,1,1,2.259,0Z" transform="translate(-616.014 -70.142)" fill="#fff"/>
            <g id="Grupo_4" data-name="Grupo 4" transform="translate(104.552 8.529)">
              <path id="Trazado_22" data-name="Trazado 22" d="M720.858,81.479l-.3-.7c-.08-.481-.213-1.3-.213-1.379a1.144,1.144,0,0,1,1.183-1.1,1.178,1.178,0,0,1,1.125.758l.536,2Zm.672-2.864a.829.829,0,0,0-.867.783c0,.066.106.7.183,1.169l1.707-.307-.2-1.122A.863.863,0,0,0,721.53,78.615Z" transform="translate(-720.347 -78.299)" fill="#aa1829"/>
            </g>
            <path id="Trazado_23" data-name="Trazado 23" d="M721.132,80.655l-.769-6.04-7.139,1.352.939,6.026,1.419-.292a2.011,2.011,0,0,1,.234-1.5,1.508,1.508,0,0,1,.176-.254l.006-.007c.018-.021.037-.042.056-.062a2.036,2.036,0,0,1,3.514.979c.009.029.019.054.027.084l1.537-.288m-5.106-2.369s-.2-1.2-.2-1.271a.924.924,0,0,1,.963-.883.959.959,0,0,1,.916.613l.216,1.2Z" transform="translate(-611.274 -67.432)" fill="#ea0029"/>
            <path id="Trazado_24" data-name="Trazado 24" d="M721.132,80.592l-.769-6.04L713.224,75.9l.939,6.026,1.419-.292a2.011,2.011,0,0,1,.234-1.5,1.508,1.508,0,0,1,.176-.254l.006-.007c.018-.021.037-.042.056-.062a2.036,2.036,0,0,1,3.514.979c.009.029.019.054.027.084l1.537-.288m-5.106-2.345s-.2-1.2-.2-1.271a.924.924,0,0,1,.963-.883.96.96,0,0,1,.917.613l.215,1.2Z" transform="translate(-611.274 -67.392)" fill="url(#linear-gradient)"/>
            <path id="Trazado_25" data-name="Trazado 25" d="M722.347,62.55a.665.665,0,0,0,.012-.971,1.151,1.151,0,0,0-.35-1.6c.905-1.7-1.024-1.721-1.024-1.721.286-2.036-2.177-1.454-2.177-1.454-.328-1-2.058-.415-2.058-.415-.612-1.432-2.3-.311-2.3-.311-2.359-.768-2.833,1.1-2.833,1.1a1.526,1.526,0,0,0-1.027,1.891,1.641,1.641,0,0,0-.228,2.474l8.116-.566a.936.936,0,0,0,1.333.193c0,.393.493.414.493.414a1.178,1.178,0,0,0,.487,1.275Z" transform="translate(-609.163 -55.402)" fill="#fff"/>
            <path id="Trazado_26" data-name="Trazado 26" d="M722.352,62.562a.679.679,0,0,0,.008-.983,1.151,1.151,0,0,0-.35-1.6c.905-1.7-1.024-1.721-1.024-1.721.286-2.036-2.177-1.454-2.177-1.454-.328-1-2.058-.415-2.058-.415-.612-1.432-2.3-.311-2.3-.311-2.359-.768-2.833,1.1-2.833,1.1a1.526,1.526,0,0,0-1.027,1.891,1.641,1.641,0,0,0-.228,2.474l8.116-.566a.936.936,0,0,0,1.333.193c0,.393.493.414.493.414a1.2,1.2,0,0,0,.491,1.288Z" transform="translate(-609.163 -55.402)" opacity="0.15" fill="url(#linear-gradient-2)"/>
            <path id="Trazado_27" data-name="Trazado 27" d="M746.825,91.228l-.506-.015-2.418.473.419.868,2.72-.5Z" transform="translate(-630.744 -77.966)" fill="#ea0029"/>
            <path id="Trazado_28" data-name="Trazado 28" d="M741.872,77.8l-1.314.221.208.914,1.3-.211Z" transform="translate(-628.622 -69.455)" fill="#ea0029"/>
            <path id="Trazado_29" data-name="Trazado 29" d="M741.076,75.022l-.085-.708h-.284l-2.117.421.1.7.617.373.208.914,1.3-.211-.2-.868Z" transform="translate(-627.373 -67.241)" fill="url(#linear-gradient-3)"/>
            <path id="Trazado_30" data-name="Trazado 30" d="M744.21,88.746l-1.977.2.293.5.322.666,2.418-.473Z" transform="translate(-629.685 -76.401)" fill="#ea0029"/>
            <path id="Trazado_31" data-name="Trazado 31" d="M744.4,88.746l-1.867.394.183.314.322.666,2.418-.473Z" transform="translate(-629.877 -76.401)" fill="url(#linear-gradient-4)"/>
            <path id="Trazado_32" data-name="Trazado 32" d="M713.224,75.967l.077.5,7.133-1.289-.071-.559Z" transform="translate(-611.274 -67.432)" fill="url(#linear-gradient-5)"/>
            <path id="Trazado_33" data-name="Trazado 33" d="M747.573,81.808a1.273,1.273,0,0,0-.367-.667l-.523.083.434,1.617.492-.165A2.532,2.532,0,0,0,747.573,81.808Z" transform="translate(-632.51 -71.574)" fill="#ea0029"/>
            <path id="Trazado_34" data-name="Trazado 34" d="M747.573,81.808a1.273,1.273,0,0,0-.367-.667l-.523.083.434,1.617.492-.165A2.532,2.532,0,0,0,747.573,81.808Z" transform="translate(-632.51 -71.574)" fill="url(#linear-gradient-6)"/>
            <path id="Trazado_35" data-name="Trazado 35" d="M740.991,74.314h-.284l-2.117.421.1.7.617.373,1.314-.221.453-.566Z" transform="translate(-627.373 -67.241)" fill="#ea0029"/>
            <path id="Trazado_36" data-name="Trazado 36" d="M740.991,74.314h-.284l-2.117.421.1.7.617.373,1.314-.221.453-.566Z" transform="translate(-627.373 -67.241)" fill="url(#linear-gradient-7)"/>
            <path id="Trazado_37" data-name="Trazado 37" d="M709.636,69.229l8.492-1.618.057,2.574L710.617,71.6Z" transform="translate(-608.997 -62.987)" fill="#ffec00"/>
            <path id="Trazado_38" data-name="Trazado 38" d="M709.636,69.229l8.492-1.618.057,2.574L710.617,71.6Z" transform="translate(-608.997 -62.987)" fill="url(#linear-gradient-8)"/>
            <g id="Grupo_5" data-name="Grupo 5" transform="translate(101.411 0.686)" opacity="0.4">
              <path id="Trazado_39" data-name="Trazado 39" d="M719.707,65.1a1.782,1.782,0,0,0,.332.082,1.731,1.731,0,0,0,.333.012,1.508,1.508,0,0,0,.32-.052,1.651,1.651,0,0,0,.3-.115l.149-.08.137-.085a2.573,2.573,0,0,0,.263-.192,2.169,2.169,0,0,0,.227-.225,1.265,1.265,0,0,0,.094-.124.806.806,0,0,0,.068-.122l.04-.1.1.008a1.721,1.721,0,0,0,.2.008,1.865,1.865,0,0,0,.211-.016,1.714,1.714,0,0,0,.411-.1,1.5,1.5,0,0,0,.195-.087,1.861,1.861,0,0,0,.181-.118,1.127,1.127,0,0,0,.165-.145c.054-.052.1-.113.149-.17a1.373,1.373,0,0,1-.1.206,1.24,1.24,0,0,1-.138.189,1.281,1.281,0,0,1-.371.3,1.754,1.754,0,0,1-.45.165,2.188,2.188,0,0,1-.238.034,1.425,1.425,0,0,1-.248,0l.141-.09a.951.951,0,0,1-.093.183,1.559,1.559,0,0,1-.111.153,1.761,1.761,0,0,1-.265.259,2.429,2.429,0,0,1-.3.206l-.163.086-.161.073a1.482,1.482,0,0,1-.724.1A1.38,1.38,0,0,1,719.707,65.1Z" transform="translate(-716.8 -61.053)" fill="#35a8e0"/>
              <path id="Trazado_40" data-name="Trazado 40" d="M711.858,65.1a.967.967,0,0,1-.08-.682.888.888,0,0,1,.16-.334.951.951,0,0,1,.129-.136,1.044,1.044,0,0,1,.15-.11l-.033.208a.886.886,0,0,1-.1-.167.791.791,0,0,1-.064-.179.951.951,0,0,1-.022-.191.735.735,0,0,1,.03-.19.629.629,0,0,1,.077-.17.731.731,0,0,1,.111-.142.955.955,0,0,1,.283-.193,1.957,1.957,0,0,0-.179.27.8.8,0,0,0-.057.139.32.32,0,0,0-.018.07.453.453,0,0,0-.012.069.689.689,0,0,0,0,.137.751.751,0,0,0,.031.132,1.169,1.169,0,0,0,.057.125.64.64,0,0,0,.073.109l.09.106-.123.1c-.036.03-.079.052-.114.083a.681.681,0,0,0-.1.1.841.841,0,0,0-.154.236A1.708,1.708,0,0,0,711.858,65.1Z" transform="translate(-711.749 -60.631)" fill="#35a8e0"/>
              <path id="Trazado_41" data-name="Trazado 41" d="M735.476,69.028a.448.448,0,0,0,.152.092.532.532,0,0,0,.168.036.887.887,0,0,0,.2-.007,3.42,3.42,0,0,0,.383-.079c.106-.03.182-.043.182-.043a.456.456,0,0,1-.04.034,1.142,1.142,0,0,1-.112.081,1.225,1.225,0,0,1-.175.087.916.916,0,0,1-.221.057.671.671,0,0,1-.234-.011.485.485,0,0,1-.187-.089A.3.3,0,0,1,735.476,69.028Z" transform="translate(-726.808 -64.572)" fill="#35a8e0"/>
              <path id="Trazado_42" data-name="Trazado 42" d="M737.182,69.569a.712.712,0,0,0,.137.145.676.676,0,0,0,.374.143.961.961,0,0,0,.222,0c.072,0,.141-.014.2-.024.118-.021.2-.031.2-.031s-.017.013-.047.032a1,1,0,0,1-.133.074,1.085,1.085,0,0,1-.205.07.757.757,0,0,1-.254.018.63.63,0,0,1-.249-.076.573.573,0,0,1-.168-.152A.409.409,0,0,1,737.182,69.569Z" transform="translate(-727.891 -64.915)" fill="#35a8e0"/>
              <path id="Trazado_43" data-name="Trazado 43" d="M735.979,62.044s.04,0,.105.005a1.162,1.162,0,0,0,.418-.067,1.034,1.034,0,0,0,.155-.072c.028-.019.063-.038.087-.057l.065-.057a.845.845,0,0,0,.128-.144,1.055,1.055,0,0,0,.222-.674.81.81,0,0,0-.056-.247l-.045-.094s.032.019.09.061a.611.611,0,0,1,.167.243.63.63,0,0,1,.046.2.76.76,0,0,1-.008.228.891.891,0,0,1-.068.233,1.007,1.007,0,0,1-.3.4.755.755,0,0,1-.11.076c-.036.02-.066.032-.1.048a.794.794,0,0,1-.227.06.815.815,0,0,1-.2,0,.779.779,0,0,1-.278-.083A.576.576,0,0,1,735.979,62.044Z" transform="translate(-727.127 -59.246)" fill="#35a8e0"/>
              <path id="Trazado_44" data-name="Trazado 44" d="M717.108,58.16a.492.492,0,0,1,.044-.108,1.022,1.022,0,0,1,.186-.25,1.234,1.234,0,0,1,.37-.249,1.306,1.306,0,0,1,.239-.083,2.155,2.155,0,0,1,.258-.047,1.882,1.882,0,0,1,.5.018,1.456,1.456,0,0,1,.42.14,1.214,1.214,0,0,1,.255.177.551.551,0,0,1,.079.086,1.507,1.507,0,0,0-.377-.152,2.215,2.215,0,0,0-.4-.069c-.073-.008-.151-.006-.227-.007a2.335,2.335,0,0,0-.239.015,2.134,2.134,0,0,0-.446.093,1.625,1.625,0,0,0-.362.171A1.2,1.2,0,0,0,717.108,58.16Z" transform="translate(-715.15 -57.201)" fill="#35a8e0"/>
              <path id="Trazado_45" data-name="Trazado 45" d="M722.318,57.231a.869.869,0,0,1,.213-.195,1.268,1.268,0,0,1,.605-.2,1.375,1.375,0,0,1,.345.022,1.186,1.186,0,0,1,.283.095,1.008,1.008,0,0,1,.18.107.724.724,0,0,1,.063.047s-.03,0-.078-.01-.117-.02-.2-.03a2.635,2.635,0,0,0-.578-.023,2.247,2.247,0,0,0-.3.039c-.1.019-.187.042-.265.064A2.414,2.414,0,0,0,722.318,57.231Z" transform="translate(-718.457 -56.83)" fill="#35a8e0"/>
            </g>
            <path id="Trazado_46" data-name="Trazado 46" d="M744.4,88.746l-1.867.394.183.314.322.666,2.418-.473Z" transform="translate(-629.877 -76.401)" fill="url(#linear-gradient-9)"/>
            <path id="Trazado_47" data-name="Trazado 47" d="M710.995,70.154l.32-.09c.205-.052.5-.137.848-.219s.762-.186,1.2-.282.914-.194,1.387-.29.947-.182,1.393-.257.864-.137,1.222-.2.658-.089.868-.118l.331-.038-.32.091c-.2.052-.5.137-.848.219s-.762.187-1.2.282-.914.194-1.388.29-.948.181-1.393.257-.864.137-1.222.2-.658.089-.868.119Z" transform="translate(-609.859 -63.655)" fill="#fff"/>
            <path id="Trazado_48" data-name="Trazado 48" d="M738.346,80.072l-1.909.306-2.7.489.414,3.251a1.477,1.477,0,0,1,1.465-1.32,1.885,1.885,0,0,1,1.334.837l1.867-.394a3.93,3.93,0,0,0,0-1.769A6.222,6.222,0,0,0,738.346,80.072Z" transform="translate(-624.293 -70.896)" fill="#ea0029"/>
            <path id="Trazado_49" data-name="Trazado 49" d="M738.346,80.072l-1.909.306-2.7.489.414,3.251a1.477,1.477,0,0,1,1.465-1.32,1.885,1.885,0,0,1,1.334.837l1.867-.394a3.93,3.93,0,0,0,0-1.769A6.222,6.222,0,0,0,738.346,80.072Z" transform="translate(-624.293 -70.896)" fill="url(#linear-gradient-10)"/>
            <path id="Trazado_50" data-name="Trazado 50" d="M738.346,80.072l-1.909.306-2.7.489.414,3.251a1.477,1.477,0,0,1,1.465-1.32,1.885,1.885,0,0,1,1.334.837l1.867-.394a3.93,3.93,0,0,0,0-1.769A6.222,6.222,0,0,0,738.346,80.072Z" transform="translate(-624.293 -70.896)" fill="url(#linear-gradient-11)"/>
            <g id="Grupo_6" data-name="Grupo 6" transform="translate(104.254 11.773)">
              <circle id="Elipse_1" data-name="Elipse 1" cx="2.039" cy="2.039" r="2.039" fill="#ffe800"/>
              <circle id="Elipse_2" data-name="Elipse 2" cx="1.892" cy="1.892" r="1.892" transform="translate(0.146 0.146)" opacity="0.5" fill="url(#linear-gradient-12)"/>
              <circle id="Elipse_3" data-name="Elipse 3" cx="1.482" cy="1.482" r="1.482" transform="translate(5.588 0.13)" fill="#ffe800"/>
              <circle id="Elipse_4" data-name="Elipse 4" cx="1.361" cy="1.361" r="1.361" transform="translate(5.708 0.25)" opacity="0.5" fill="url(#linear-gradient-12)"/>
              <path id="Trazado_51" data-name="Trazado 51" d="M735.277,89.35s-.007-.036-.015-.1a1.045,1.045,0,0,1,0-.27,1.245,1.245,0,0,1,.108-.372,1.419,1.419,0,0,1,.113-.19,1.852,1.852,0,0,1,.145-.176,1.747,1.747,0,0,1,.176-.145,1.339,1.339,0,0,1,.19-.113,1.234,1.234,0,0,1,.371-.109,1.074,1.074,0,0,1,.27,0c.064.008.1.015.1.015s-.036.011-.1.025a1.567,1.567,0,0,0-.243.078,1.472,1.472,0,0,0-.152.066c-.054.022-.1.06-.16.088a1.751,1.751,0,0,0-.551.551c-.028.056-.065.106-.088.161a2.095,2.095,0,0,0-.144.395C735.288,89.315,735.277,89.35,735.277,89.35Z" transform="translate(-729.51 -87.616)" fill="#fff"/>
              <path id="Trazado_52" data-name="Trazado 52" d="M730.372,91.034l-5,.5.022.266,5-.5-.008-.093V91.2Z" transform="translate(-723.238 -89.626)" fill="#ea0029"/>
              <path id="Trazado_53" data-name="Trazado 53" d="M730.372,91.034l-5,.5.022.266,5-.5-.008-.093V91.2Z" transform="translate(-723.238 -89.626)" fill="url(#linear-gradient-14)"/>
              <circle id="Elipse_5" data-name="Elipse 5" cx="0.409" cy="0.409" r="0.409" transform="translate(1.63 1.63)" fill="#ea0029"/>
              <circle id="Elipse_6" data-name="Elipse 6" cx="0.409" cy="0.409" r="0.409" transform="translate(1.63 1.63)" fill="url(#linear-gradient-15)"/>
              <circle id="Elipse_7" data-name="Elipse 7" cx="0.308" cy="0.308" r="0.308" transform="translate(6.761 1.237)" fill="#ea0029"/>
              <circle id="Elipse_8" data-name="Elipse 8" cx="0.308" cy="0.308" r="0.308" transform="translate(6.761 1.237)" fill="url(#linear-gradient-16)"/>
              <path id="Trazado_54" data-name="Trazado 54" d="M720.161,89.633s-.007-.047-.014-.129a.882.882,0,0,1,0-.149,1.016,1.016,0,0,1,.017-.2,1.18,1.18,0,0,1,.053-.228,1.7,1.7,0,0,1,.095-.245,1.844,1.844,0,0,1,.146-.241,1.593,1.593,0,0,1,.411-.411,1.851,1.851,0,0,1,.241-.146,1.674,1.674,0,0,1,.245-.095,1.175,1.175,0,0,1,.228-.053,1,1,0,0,1,.2-.017.935.935,0,0,1,.15,0c.083.007.129.014.129.014s-.047.012-.126.027a1.959,1.959,0,0,0-.319.09,1.759,1.759,0,0,0-.2.082c-.072.028-.138.075-.213.111a2.161,2.161,0,0,0-.725.724c-.036.074-.083.141-.111.213a1.769,1.769,0,0,0-.082.2,1.922,1.922,0,0,0-.089.319C720.173,89.587,720.161,89.633,720.161,89.633Z" transform="translate(-719.919 -87.524)" fill="#fff"/>
              <path id="Trazado_55" data-name="Trazado 55" d="M738.254,91.042a.163.163,0,0,1-.028-.089.256.256,0,0,1,.266-.267.175.175,0,0,1,.089.028,1.131,1.131,0,0,0-.183.145.863.863,0,0,0-.1.113C738.275,91.007,738.254,91.042,738.254,91.042Z" transform="translate(-731.396 -89.405)" fill="#fff"/>
              <path id="Trazado_56" data-name="Trazado 56" d="M724.165,92.253a.26.26,0,0,1-.012-.031.244.244,0,0,1-.012-.087.363.363,0,0,1,.354-.354.253.253,0,0,1,.118.024s-.045.021-.1.052a.781.781,0,0,0-.169.129.8.8,0,0,0-.129.168C724.186,92.205,724.165,92.253,724.165,92.253Z" transform="translate(-722.456 -90.099)" fill="#fff"/>
            </g>
          </g>
        </g>
      </g>
    </g>
  </g>
</svg>
